<?xml version="1.0" encoding="UTF-8" standalone="no"?>
<svg
   xmlns:dc="http://purl.org/dc/elements/1.1/"
   xmlns:cc="http://creativecommons.org/ns#"
   xmlns:rdf="http://www.w3.org/1999/02/22-rdf-syntax-ns#"
   xmlns:svg="http://www.w3.org/2000/svg"
   xmlns="http://www.w3.org/2000/svg"
   viewBox="0 0 4580 2666.6667"
   height="2666.6667"
   width="4580"
   xml:space="preserve"
   id="svg2"
   version="1.1"><metadata
     id="metadata8"><rdf:RDF><cc:Work
         rdf:about=""><dc:format>image/svg+xml</dc:format><dc:type
           rdf:resource="http://purl.org/dc/dcmitype/StillImage" /></cc:Work></rdf:RDF></metadata><defs
     id="defs6"><clipPath
       id="clipPath352"
       clipPathUnits="userSpaceOnUse"><path
         id="path350"
         d="m 19050.6,3687.5 -49,1.2 c 28.4,836.6 265.7,1679.5 305.7,1816.2 -138.4,75.7 -1070.8,583.3 -1703.9,876.6 -539.6,249.9 -1130.6,275.7 -1351.9,275.7 -29,0 -51.7,-0.4 -67.1,-0.9 V 3757.5 l -49.1,1.2 v 2897.2 c -62.3,1.2 -240.3,4.2 -475.4,4.2 -598.1,0 -1565.1,-19.1 -1935.1,-134.4 -515.2,-160.6 -1204.7,-889.1 -1289.1,-979.7 l 182,-853.9 c 44.7,2.1 88,3.2 130.1,3.2 643.5,0 981.2,-247.2 1153.4,-463.4 127.6,-160.3 183.9,-323.2 208.2,-423.8 l -51.4,1.3 c -25.1,97 -80,247.9 -196.8,393.9 -233,291.1 -616.4,442.9 -1114.6,442.9 -48,0 -97.1,-1.4 -147.1,-4.2 l -21,-1.2 -196,919.7 8.5,9.3 c 30.7,33.7 759.6,828.3 1319.2,1002.7 376.2,117.3 1326.1,137.2 1927.3,137.2 286.6,0 494,-4.5 522,-5.2 6.2,0.3 38.5,1.8 91.3,1.8 225.3,0 825.1,-26.4 1373.2,-280.3 683.4,-316.5 1713.9,-881.9 1724.2,-887.6 l 17.5,-9.6 -5.8,-19.1 c -2.9,-9.3 -278.6,-920 -309.3,-1822.2" /></clipPath></defs><g
     transform="matrix(1.3333333,0,0,-1.3333333,0,2666.6667)"
     id="g10"><g
       transform="scale(0.1)"
       id="g12"><g
         transform="scale(2.10736)"
         id="g14"><path
           id="path16"
           style="fill:transparent;fill-opacity:1;fill-rule:nonzero;stroke:none"
           d="M 16300,0 H 0 V 9490.54 H 16300 V 0" /></g><g
         transform="scale(2.10736)"
         id="g18"><path
           id="path20"
           style="fill:#eafcfc;fill-opacity:1;fill-rule:nonzero;stroke:none"
           d="M 1912.47,1165.2 H 15351.6 c 1114,646.5 540.7,2591.87 -389.7,2986.25 -1001.6,424.51 588.8,1892.59 -954,2369.11 -1007.3,311.12 -2372.5,-36.45 -3039.4,633.37 C 10185,7940.9 8883.43,8898.78 6459.35,8154.43 4589.79,7580.34 5605.25,6473.58 2545.87,6140.35 972.713,5969 1276.71,4503.02 1423.39,4200.09 1551.15,3936.2 2396.38,3517.72 1221.7,2941.36 -500.806,2096.22 1871.87,1180.77 1912.47,1165.2" /></g><g
         transform="scale(1.54993)"
         id="g22"><path
           id="path24"
           style="fill:#c5ddf9;fill-opacity:1;fill-rule:nonzero;stroke:none"
           d="m 7628.1,4538.93 c 0,0 1872.09,2371.58 2985.5,2363.96 1113.4,-7.62 2326.3,-1562.05 3910.8,-2889.67 1775.6,-1487.74 -542.9,-1550.2 -676.7,-1562.39 -133.9,-12.26 -4750.56,150.78 -4827.59,231.1 -76.98,80.33 -1309.68,1108.9 -1309.68,1108.9 l -82.33,748.1" /></g><g
         transform="scale(1.64626)"
         id="g26"><path
           id="path28"
           style="fill:#355389;fill-opacity:1;fill-rule:nonzero;stroke:none"
           d="m 16225.5,4206.15 h 74.5 v 825.63 h -74.5 v -825.63" /></g><g
         transform="scale(1.66705)"
         id="g30"><path
           id="path32"
           style="fill:#3c8f7c;fill-opacity:1;fill-rule:nonzero;stroke:none"
           d="m 16059.9,6550.76 240.1,-1940.4 h -480.2 l 240.1,1940.4" /></g><g
         transform="scale(1.65814)"
         id="g34"><path
           id="path36"
           style="fill:#50bfa5;fill-opacity:1;fill-rule:nonzero;stroke:none"
           d="m 16300,5342.67 -344.2,-295.15 13.2,106.93 320.3,274.64 10.7,-86.42" /></g><g
         transform="scale(1.65276)"
         id="g38"><path
           id="path40"
           style="fill:#50bfa5;fill-opacity:1;fill-rule:nonzero;stroke:none"
           d="m 16300,5789.04 -211.5,-72.24 10,80.29 192.4,65.83 9.1,-73.88" /></g><path
         id="path42"
         style="fill:#3c8f7c;fill-opacity:1;fill-rule:nonzero;stroke:none"
         d="m 10012.1,9317.6 357.4,-2887.9 h -714.7 z" /><path
         id="path44"
         style="fill:#3c8f7c;fill-opacity:1;fill-rule:nonzero;stroke:none"
         d="m 10641.6,8893.5 272.2,-2199.4 h -544.3 z" /><path
         id="path46"
         style="fill:#3c8f7c;fill-opacity:1;fill-rule:nonzero;stroke:none"
         d="m 11185.9,8238.5 272.2,-2199.4 h -544.3 z" /><path
         id="path48"
         style="fill:#3c8f7c;fill-opacity:1;fill-rule:nonzero;stroke:none"
         d="M 9343.58,8672.7 9700.92,5784.8 H 8986.24 Z" /><g
         transform="scale(1.8855)"
         id="g50"><path
           id="path52"
           style="fill:#86b1f2;fill-opacity:1;fill-rule:nonzero;stroke:none"
           d="M 5672.07,4123.3 C 7316.03,3849.79 9782.8,1391.51 11661.6,1391.51 c 1878.9,0 2283.4,587.96 2988,463.65 704.6,-124.32 1650.4,-463.65 1650.4,-463.65 L 2338.27,1350.25 c 0,0 1689.82,3046.61 3333.8,2773.05" /></g><g
         transform="scale(1.36641)"
         id="g54"><path
           id="path56"
           style="fill:#3c8f7c;fill-opacity:1;fill-rule:nonzero;stroke:none"
           d="M 16038.4,6678.4 16300,4564.9 h -523.1 l 261.5,2113.5" /></g><g
         transform="scale(1.41339)"
         id="g58"><path
           id="path60"
           style="fill:#3c8f7c;fill-opacity:1;fill-rule:nonzero;stroke:none"
           d="M 16107.4,5854.87 16300,4298.75 h -385.2 l 192.6,1556.12" /></g><g
         transform="scale(1.28183)"
         id="g62"><path
           id="path64"
           style="fill:#3c8f7c;fill-opacity:1;fill-rule:nonzero;stroke:none"
           d="M 16087.7,5539.9 16300,3823.99 h -424.6 l 212.3,1715.91" /></g><g
         transform="scale(1.32539)"
         id="g66"><path
           id="path68"
           style="fill:#3c8f7c;fill-opacity:1;fill-rule:nonzero;stroke:none"
           d="M 16030.4,6398.51 16300,4219.6 h -539.2 l 269.6,2178.91" /></g><g
         transform="scale(1.90371)"
         id="g70"><path
           id="path72"
           style="fill:#86b1f2;fill-opacity:1;fill-rule:nonzero;stroke:none"
           d="M 12998.1,4083.86 C 11369.8,3812.97 8926.67,1378.2 7065.78,1378.2 5204.94,1378.2 4804.25,1960.54 4106.43,1837.41 3408.61,1714.28 2471.81,1378.2 2471.81,1378.2 L 16300,1337.34 c 0,0 -1673.7,3017.47 -3301.9,2746.52" /></g><g
         transform="scale(1.46156)"
         id="g74"><path
           id="path76"
           style="fill:#355389;fill-opacity:1;fill-rule:nonzero;stroke:none"
           d="m 16204.3,2358.71 h 95.7 v 1060.91 h -95.7 V 2358.71" /></g><g
         transform="scale(1.48528)"
         id="g78"><path
           id="path80"
           style="fill:#3c8f7c;fill-opacity:1;fill-rule:nonzero;stroke:none"
           d="M 15992.6,5390.36 16300,2905.71 h -614.8 l 307.4,2484.65" /></g><g
         transform="scale(1.47512)"
         id="g82"><path
           id="path84"
           style="fill:#50bfa5;fill-opacity:1;fill-rule:nonzero;stroke:none"
           d="m 16300,3833.11 -441.4,-378.48 17,137.14 410.7,352.17 13.7,-110.83" /></g><g
         transform="scale(1.46898)"
         id="g86"><path
           id="path88"
           style="fill:#50bfa5;fill-opacity:1;fill-rule:nonzero;stroke:none"
           d="m 16300,4399.78 -271.4,-92.78 12.8,103.13 246.9,84.41 11.7,-94.76" /></g><g
         transform="scale(1.55816)"
         id="g90"><path
           id="path92"
           style="fill:#355389;fill-opacity:1;fill-rule:nonzero;stroke:none"
           d="m 16214.3,1788.13 h 85.7 v 1501.01 h -85.7 V 1788.13" /></g><g
         transform="scale(1.59227)"
         id="g94"><path
           id="path96"
           style="fill:#3c8f7c;fill-opacity:1;fill-rule:nonzero;stroke:none"
           d="M 15886.9,5837.58 16300,2872.63 h -826.2 l 413.1,2964.95" /></g><g
         transform="scale(1.58971)"
         id="g98"><path
           id="path100"
           style="fill:#50bfa5;fill-opacity:1;fill-rule:nonzero;stroke:none"
           d="m 16300,3065.71 -742.4,234.01 11.2,80.52 718.9,-226.59 12.3,-87.94" /></g><g
         transform="scale(1.57696)"
         id="g102"><path
           id="path104"
           style="fill:#50bfa5;fill-opacity:1;fill-rule:nonzero;stroke:none"
           d="m 16300,4036.24 -496,156.38 11.3,81.16 472.3,-148.89 12.4,-88.65" /></g><g
         transform="scale(1.90276)"
         id="g106"><path
           id="path108"
           style="fill:#96d9c9;fill-opacity:1;fill-rule:nonzero;stroke:none"
           d="m 2317.06,1338 c 0,0 1786.09,1551.49 4089.1,1646.82 773.3,31.95 3939.94,-609.69 6606.54,-1113.8 112.1,-21.18 354.5,-228.67 468,-250.01 1262.4,-237.28 2438.8,-287.42 2819.3,-302.71 L 2317.06,1338" /></g><g
         transform="scale(1.97602)"
         id="g110"><path
           id="path112"
           style="fill:#4e9b87;fill-opacity:1;fill-rule:nonzero;stroke:none"
           d="m 16056.8,2931.59 2.5,128.7 c 0,95.39 -72.8,172.72 -162.6,172.72 -226.3,0 -409.8,-194.89 -409.8,-435.32 v -175.81 c 0,-77.02 -40.9,-143.87 -100.9,-177.43 -54.5,-30.46 -87.8,-91.34 -87.8,-156.78 v -92.66 c 0,-100.35 44.3,-193.97 118,-256.77 43.1,-36.74 70.7,-93.17 70.7,-156.38 v -131.22 c 0,-145.09 110.7,-262.7 247.2,-262.7 h 78 c 136.5,0 247.2,117.61 247.2,262.7 v 0 c -22.4,183.24 31.9,288.96 94.6,349.44 92.2,88.86 146.1,213.86 146.1,346.1 v 18.57 c 0,139.52 -60.6,270.19 -161.9,359.05 -44.7,39.22 -81.3,103.24 -81.3,207.79" /></g><g
         transform="scale(1.9774)"
         id="g114"><path
           id="path116"
           style="fill:#96d9c9;fill-opacity:1;fill-rule:nonzero;stroke:none"
           d="m 16300,1234.75 c 0,0 -630.9,838.07 -1028,966.57 -397,128.55 -22.8,-381.96 -22.8,-381.96 0,0 -704.3,770.15 -962.8,700.76 -236.9,-63.67 0,-541.06 0,-541.06 0,0 -266.8,264.34 -590.4,264.34 -323.6,0 250.1,-989.84 250.1,-989.84 l 2353.9,-18.81" /></g><g
         transform="scale(1.73313)"
         id="g118"><path
           id="path120"
           style="fill:#3c8f7c;fill-opacity:1;fill-rule:nonzero;stroke:none"
           d="m 16300,1430.25 c 0,0 -492.1,1315.94 -1101.4,1163.73 -493.9,-123.3 -142.8,-785.4 -172.9,-755.34 -30,30.12 -294.9,479.54 -723.5,479.54 -428.6,0 131.6,-606.54 131.6,-606.54 0,0 -913.1,285.15 -984.6,-14.3 -59.4,-248.52 272.5,-267.09 272.5,-267.09 H 16300" /></g><path
         id="path122"
         style="fill:#3c8f7c;fill-opacity:1;fill-rule:nonzero;stroke:none"
         d="m 8753.28,2904.7 c 4.8,28.4 7.3,57.5 7.3,87.1 0,330.1 -309.34,597.7 -690.93,597.7 -381.58,0 -690.92,-267.6 -690.92,-597.7 0,-29.6 2.5,-58.7 7.3,-87.1 h 1367.25" /><path
         id="path124"
         style="fill:#50bfa5;fill-opacity:1;fill-rule:nonzero;stroke:none"
         d="m 9535.21,3051.6 c 4.81,40.1 7.31,81.1 7.31,122.9 0,465.4 -309.34,842.8 -690.93,842.8 -381.59,0 -690.92,-377.4 -690.92,-842.8 0,-41.8 2.5,-82.8 7.3,-122.9 h 1367.24" /><path
         id="path126"
         style="fill:#50bfa5;fill-opacity:1;fill-rule:nonzero;stroke:none"
         d="m 9282.24,2535.1 c -4.8,28.5 -7.3,57.5 -7.3,87.1 0,330.1 309.34,597.7 690.92,597.7 381.64,0 690.94,-267.6 690.94,-597.7 0,-29.6 -2.5,-58.6 -7.3,-87.1 H 9282.24" /><path
         id="path128"
         style="fill:#3c8f7c;fill-opacity:1;fill-rule:nonzero;stroke:none"
         d="m 8176.46,2535.1 c -6.08,40.1 -9.25,81.1 -9.25,122.9 0,465.5 392.15,842.8 875.88,842.8 483.74,0 875.88,-377.3 875.88,-842.8 0,-41.8 -3.16,-82.8 -9.25,-122.9 H 8176.46" /><path
         id="path130"
         style="fill:#50bfa5;fill-opacity:1;fill-rule:nonzero;stroke:none"
         d="m 8848.98,3500.8 c -241.77,0 -457.75,-119.7 -600.29,-307.5 -72.59,17.3 -149.71,26.6 -229.66,26.6 -429.23,0 -777.2,-267.6 -777.2,-597.7 0,-29.6 2.81,-58.6 8.22,-87.1 h 2367.91 c 5.41,40.1 8.22,81.1 8.22,122.9 0,465.5 -347.97,842.8 -777.2,842.8" /><path
         id="path132"
         style="fill:#3c8f7c;fill-opacity:1;fill-rule:nonzero;stroke:none"
         d="m 5853.88,4310.4 c -203.39,317.7 -241.34,701.4 -237.36,967.4 4.31,288.7 57.6,504.9 58.14,507 l -14.71,5.2 c -0.55,-2.2 -54.26,-219.9 -58.65,-510.5 -4.06,-268.6 34.33,-656.3 240.23,-978 l 12.35,8.9" /><path
         id="path134"
         style="fill:#3c8f7c;fill-opacity:1;fill-rule:nonzero;stroke:none"
         d="m 5724.74,5837.6 c -5,-65.3 -33.92,-120.1 -75.57,-153.7 -35.59,45.5 -55.56,107.8 -50.56,173.1 5,65.3 33.93,120.1 75.57,153.8 35.59,-45.5 55.56,-107.8 50.56,-173.2" /><path
         id="path136"
         style="fill:#3c8f7c;fill-opacity:1;fill-rule:nonzero;stroke:none"
         d="m 5587.28,5686.8 c 34.5,-56.5 45.19,-120.9 34.14,-176.8 -52.83,12.6 -103.97,49.6 -138.47,106.1 -34.5,56.6 -45.2,121 -34.15,176.8 52.84,-12.6 103.97,-49.5 138.48,-106.1" /><path
         id="path138"
         style="fill:#3c8f7c;fill-opacity:1;fill-rule:nonzero;stroke:none"
         d="m 5509.4,5509.3 c 53.57,-34.8 89.89,-88.6 103.86,-145.4 -50.92,-14.5 -110.63,-5.7 -164.21,29.1 -53.58,34.9 -89.89,88.7 -103.86,145.4 50.92,14.5 110.63,5.8 164.21,-29.1" /><path
         id="path140"
         style="fill:#3c8f7c;fill-opacity:1;fill-rule:nonzero;stroke:none"
         d="m 5533.41,5262.2 c 42.42,-27.7 68.71,-75.1 75.88,-127.4 -44.2,-18.8 -93.93,-16.5 -136.35,11.2 -42.41,27.7 -68.71,75 -75.87,127.4 44.19,18.8 93.93,16.5 136.34,-11.2" /><path
         id="path142"
         style="fill:#3c8f7c;fill-opacity:1;fill-rule:nonzero;stroke:none"
         d="m 5708.7,5555 c 47.68,25.5 101.05,26.9 146.73,8.5 -12.06,-49.3 -44.15,-93.5 -91.84,-119 -47.68,-25.5 -101.05,-26.9 -146.73,-8.5 12.06,49.3 44.16,93.5 91.84,119" /><path
         id="path144"
         style="fill:#3c8f7c;fill-opacity:1;fill-rule:nonzero;stroke:none"
         d="m 5703.42,5384.3 c 47.68,25.5 101.05,27 146.74,8.6 -12.07,-49.3 -44.16,-93.6 -91.85,-119.1 -47.68,-25.5 -101.05,-26.9 -146.74,-8.5 12.07,49.3 44.16,93.5 91.85,119" /><path
         id="path146"
         style="fill:#3c8f7c;fill-opacity:1;fill-rule:nonzero;stroke:none"
         d="m 5564.11,4990.7 c 25.22,-5.9 46.13,-22.9 58.76,-45.1 -17.92,-14.9 -42.19,-21.4 -67.41,-15.5 -25.21,5.9 -46.13,22.9 -58.75,45 17.92,15 42.19,21.5 67.4,15.6" /><path
         id="path148"
         style="fill:#3c8f7c;fill-opacity:1;fill-rule:nonzero;stroke:none"
         d="m 5770.02,4085.8 c -465.47,111.3 -820.47,455.6 -1036.31,724.8 -234.32,292.3 -359.85,561.7 -361.09,564.4 l -18.96,-9.7 c 1.25,-2.7 127.67,-274.1 363.5,-568.4 C 4935.08,4525 5293.77,4177.2 5765,4064.6 l 5.02,21.2" /><path
         id="path150"
         style="fill:#3c8f7c;fill-opacity:1;fill-rule:nonzero;stroke:none"
         d="m 4378.91,5478.3 c 49.01,-70.2 65.46,-154.1 51.73,-229.7 -73.09,9.4 -144.5,51.3 -193.51,121.5 -49.01,70.2 -65.46,154.1 -51.73,229.8 73.09,-9.4 144.49,-51.4 193.51,-121.6" /><path
         id="path152"
         style="fill:#3c8f7c;fill-opacity:1;fill-rule:nonzero;stroke:none"
         d="m 4366.47,5189 c 81.14,-21.5 145.01,-74.9 180.17,-141.8 -63.1,-40.8 -144.65,-55.7 -225.79,-34.2 -81.13,21.6 -145,74.9 -180.16,141.8 63.1,40.9 144.65,55.7 225.78,34.2" /><path
         id="path154"
         style="fill:#3c8f7c;fill-opacity:1;fill-rule:nonzero;stroke:none"
         d="m 4435.5,4933.3 c 82.25,19.4 162.94,2.4 223.76,-40 -38.8,-66 -105.54,-117.6 -187.8,-137 -82.25,-19.4 -162.93,-2.5 -223.75,40 38.79,65.9 105.54,117.6 187.79,137" /><path
         id="path156"
         style="fill:#3c8f7c;fill-opacity:1;fill-rule:nonzero;stroke:none"
         d="m 4620.94,4700.8 c 82.26,19.3 162.94,2.4 223.76,-40.1 -38.8,-65.9 -105.54,-117.6 -187.79,-136.9 -82.26,-19.4 -162.94,-2.5 -223.76,40 38.8,65.9 105.54,117.6 187.79,137" /><path
         id="path158"
         style="fill:#3c8f7c;fill-opacity:1;fill-rule:nonzero;stroke:none"
         d="m 4565.49,5087.3 c -4.15,79.1 21.86,153.6 66.3,207.2 49.46,-42.2 82.9,-109.4 87.04,-188.5 4.15,-79.1 -21.86,-153.7 -66.3,-207.3 -49.46,42.2 -82.9,109.5 -87.04,188.6" /><path
         id="path160"
         style="fill:#3c8f7c;fill-opacity:1;fill-rule:nonzero;stroke:none"
         d="m 4758.89,4846.7 c -5.35,79.1 19.53,154 63.15,208.5 50.09,-41.3 84.54,-107.9 89.88,-186.9 5.35,-79 -19.53,-154 -63.15,-208.5 -50.09,41.3 -84.54,107.9 -89.88,186.9" /><path
         id="path162"
         style="fill:#3c8f7c;fill-opacity:1;fill-rule:nonzero;stroke:none"
         d="m 4918.74,4471.4 c 30.02,19.6 64.96,23.7 95.83,14.4 -5.48,-33 -24.34,-64 -54.35,-83.6 -30.02,-19.6 -64.96,-23.8 -95.83,-14.5 5.48,33.1 24.34,64.1 54.35,83.7" /><path
         id="path164"
         style="fill:#3c8f7c;fill-opacity:1;fill-rule:nonzero;stroke:none"
         d="m 7002.11,3428.4 20.12,1.3 c -28.98,532.4 166.45,1033.4 335.5,1359.9 183.46,354.3 376.33,585.4 378.25,587.7 l -14.76,15.2 c -1.94,-2.3 -196.14,-235 -380.74,-591.4 -170.53,-329.2 -367.66,-834.6 -338.37,-1372.7" /><path
         id="path166"
         style="fill:#3c8f7c;fill-opacity:1;fill-rule:nonzero;stroke:none"
         d="m 7823.36,5407.8 c -45.96,-77.4 -111.93,-125.5 -178.92,-138.6 -11.32,80.5 5.08,171.2 51.04,248.7 45.96,77.4 111.93,125.4 178.91,138.6 11.33,-80.6 -5.07,-171.3 -51.03,-248.7" /><path
         id="path168"
         style="fill:#3c8f7c;fill-opacity:1;fill-rule:nonzero;stroke:none"
         d="m 7577.63,5315.1 c 3.28,-93.5 -24.68,-180.5 -71.5,-242 -50.79,51.6 -84.63,132.3 -87.91,225.8 -3.29,93.5 24.67,180.4 71.49,242 50.8,-51.7 84.64,-132.3 87.92,-225.8" /><path
         id="path170"
         style="fill:#3c8f7c;fill-opacity:1;fill-rule:nonzero;stroke:none"
         d="m 7381.48,5148.7 c 37.84,-79.7 44.83,-171.1 25.22,-250.8 -65.44,16.8 -126.26,68.4 -164.1,148.1 -37.84,79.7 -44.83,171.1 -25.22,250.8 65.44,-16.9 126.26,-68.4 164.1,-148.1" /><path
         id="path172"
         style="fill:#3c8f7c;fill-opacity:1;fill-rule:nonzero;stroke:none"
         d="m 7246.73,4739.7 c 18.12,-32.1 23.64,-70.1 17.69,-104.2 -27.89,4.8 -54.84,24.3 -72.96,56.4 -18.12,32 -23.65,70.1 -17.7,104.2 27.9,-4.8 54.85,-24.3 72.97,-56.4" /><path
         id="path174"
         style="fill:#3c8f7c;fill-opacity:1;fill-rule:nonzero;stroke:none"
         d="m 7188.58,4592.9 c 18.12,-32.1 23.65,-70.1 17.7,-104.2 -27.9,4.8 -54.84,24.3 -72.96,56.3 -18.12,32.1 -23.65,70.2 -17.7,104.2 27.9,-4.7 54.84,-24.2 72.96,-56.3" /><path
         id="path176"
         style="fill:#3c8f7c;fill-opacity:1;fill-rule:nonzero;stroke:none"
         d="m 7630.75,5069.1 c 68.64,-1 128.71,-35.6 167.99,-89.6 -43.88,-52.7 -106.86,-85.6 -175.5,-84.6 -68.66,1 -128.72,35.7 -167.99,89.7 43.87,52.7 106.84,85.6 175.5,84.5" /><path
         id="path178"
         style="fill:#3c8f7c;fill-opacity:1;fill-rule:nonzero;stroke:none"
         d="m 7519.3,4861.6 c 68.65,-1 128.72,-35.7 167.99,-89.6 -43.87,-52.8 -106.85,-85.6 -175.5,-84.6 -68.65,1 -128.71,35.7 -167.99,89.6 43.88,52.8 106.85,85.6 175.5,84.6" /><path
         id="path180"
         style="fill:#3c8f7c;fill-opacity:1;fill-rule:nonzero;stroke:none"
         d="m 7334.86,4578.8 c 44.68,-0.7 83.77,-23.2 109.33,-58.4 -28.55,-34.3 -69.54,-55.7 -114.22,-55 -44.69,0.6 -83.78,23.2 -109.34,58.3 28.55,34.4 69.55,55.7 114.23,55.1" /><path
         id="path182"
         style="fill:#3c8f7c;fill-opacity:1;fill-rule:nonzero;stroke:none"
         d="m 5266.41,2555.4 c 0,88.6 535.19,-15.9 579.71,104.8 44.52,120.8 -458.37,127.7 -458.37,291 0,163.4 256.28,48.8 406.56,48.8 150.28,0 -296.7,70 -296.7,127.8 0,57.8 156.82,27.5 156.82,88.9 0,61.4 -823.55,107.7 -727.16,257.9 96.38,150.3 539.13,-43.8 660.7,34 121.57,77.7 -649.47,162.5 -668.55,278.1 -19.08,115.6 568.13,-99.1 651.28,-15.9 83.15,83.1 -928.53,382 -886.14,601.6 42.38,219.6 766.81,-281.3 947.91,-227.3 181.1,53.9 -913.23,824.9 -658.92,1125.3 254.33,300.4 739.84,-994.3 905.53,-948.1 165.7,46.2 -207.5,818.1 -38.24,952.4 169.25,134.2 655.07,-1086.7 685.75,-1337.5 30.68,-250.7 92.33,539.4 358.2,631.8 265.88,92.4 7.71,-489.4 53.95,-666.7 46.24,-177.3 262,454.7 552.94,408.4 290.94,-46.2 -525.96,-624.2 -445.04,-793.7 80.91,-169.6 711.71,566 909.38,368.3 197.66,-197.6 -759.79,-746.2 -707.43,-896.4 52.36,-150.1 626.79,107.2 792.2,-58.2 165.41,-165.4 -617.09,-270.5 -720.85,-270.5 -103.76,0 -500.29,-130.4 -113.02,-104.8 387.27,25.7 -1940.51,-88.6 -1940.51,0" /><path
         id="path184"
         style="fill:#50bfa5;fill-opacity:1;fill-rule:nonzero;stroke:none"
         d="m 6791.95,2453.1 c 0,0 644.5,-34.6 832.14,83.6 187.64,118.1 39.54,210 39.54,210 0,0 595.97,13 594.48,154.2 -1.5,141.2 -145.96,133.1 -145.96,133.1 0,0 300.81,204.4 244.71,331.8 -86.22,195.8 -576.18,-145.1 -576.18,-145.1 0,0 160.62,190.8 30.84,235.3 C 7455.25,3578.4 6791.95,2453.1 6791.95,2453.1" /><path
         id="path186"
         style="fill:#96d9c9;fill-opacity:1;fill-rule:nonzero;stroke:none"
         d="m 8356.86,3365.8 c 56.1,-127.4 -244.71,-331.8 -244.71,-331.8 0,0 217.11,2.9 181.87,-134.5 -35.1,-136.8 -580.96,-182.9 -580.96,-182.9 0,0 190.57,-37.3 2.93,-155.4 -187.65,-118.2 -924.04,-108.1 -924.04,-108.1 l 1564.91,912.7" /><path
         id="path188"
         style="fill:#184655;fill-opacity:1;fill-rule:nonzero;stroke:none"
         d="m 4153.56,8076.2 c 1.04,34.8 49.15,61.9 74.66,31 25.42,-30.8 24.34,-10 49.11,-76.6 71.1,-191.3 175.6,-376.4 297.23,-538.1 233.05,-309.9 463.77,-466.2 725.71,-621.1 -107.94,243.2 -180.23,502.8 -189.44,764.7 -3.35,95.4 -1.52,194.4 39.3,281.9 11.4,24.5 55.21,19.5 59.65,-7.8 22.01,-135.1 -10.38,-237 33.35,-478.8 104.37,-577.1 517.41,-1189.1 915.86,-1617.7 -76.41,725.5 -113.44,1550.2 23.21,2282 22.41,120.1 58.05,234.3 91.17,351.5 7.79,27.6 47,15.8 42.17,-11.6 -6.88,-39 -71.98,-542.7 -75.91,-577.4 -63.16,-557.4 -50.54,-1174.8 -1.38,-1737.9 309.07,418.6 515.95,908.1 612.69,1419.3 28.59,151.1 36.22,307.1 76.32,455.4 5.52,20.4 39.27,22.6 43.47,0 41.17,-222.2 -41.27,-615.2 -101.35,-828.8 -121.77,-432.8 -316.59,-820.7 -582.94,-1167.3 -10.36,-13.4 427.74,-3400 415.97,-3442.9 -19.86,-72.3 -145.85,-123.1 -165.4,5.3 -7.96,52.2 -248.68,2111.4 -357.3,3065.2 -41.04,22.6 -67.45,62.8 -173.03,181.5 -244.36,274.7 -486,616.5 -647.5,938.8 -96.91,5.5 -796.76,346 -1143.92,1121.4 -10,22.4 -55.08,127.3 -61.52,150.7 -5.53,20.1 -0.78,37.5 -0.18,57.3" /><path
         id="path190"
         style="fill:#50bfa5;fill-opacity:1;fill-rule:nonzero;stroke:none"
         d="m 6401.18,9174.2 c -7.97,104.2 -12.12,210.8 -12.12,319.3 0,1209.6 513.39,2190.1 1146.69,2190.1 633.3,0 1146.69,-980.5 1146.69,-2190.1 0,-108.5 -4.15,-215.1 -12.12,-319.3 H 6401.18" /><path
         id="path192"
         style="fill:#96d9c9;fill-opacity:1;fill-rule:nonzero;stroke:none"
         d="m 5103.44,9712.5 c -7.97,146.9 -12.12,297.3 -12.12,450.2 0,1705.9 513.39,3088.8 1146.69,3088.8 633.3,0 1146.69,-1382.9 1146.69,-3088.8 0,-152.9 -4.15,-303.3 -12.12,-450.2 H 5103.44" /><path
         id="path194"
         style="fill:#96d9c9;fill-opacity:1;fill-rule:nonzero;stroke:none"
         d="m 5523.29,7819.7 c 7.96,104.3 12.12,210.9 12.12,319.3 0,1209.6 -513.39,2190.2 -1146.69,2190.2 -633.3,0 -1146.69,-980.6 -1146.69,-2190.2 0,-108.4 4.15,-215 12.12,-319.3 h 2269.14" /><path
         id="path196"
         style="fill:#50bfa5;fill-opacity:1;fill-rule:nonzero;stroke:none"
         d="m 7358.48,7819.7 c 10.1,147 15.36,297.4 15.36,450.3 0,1705.9 -650.82,3088.8 -1453.65,3088.8 -802.83,0 -1453.66,-1382.9 -1453.66,-3088.8 0,-152.9 5.26,-303.3 15.37,-450.3 h 2876.58" /><path
         id="path198"
         style="fill:#96d9c9;fill-opacity:1;fill-rule:nonzero;stroke:none"
         d="m 6242.35,11358.8 c 401.24,0 759.7,-438.8 996.27,-1126.8 120.46,63.2 248.46,97.2 381.14,97.2 712.38,0 1289.87,-980.6 1289.87,-2190.2 0,-108.4 -4.66,-215 -13.63,-319.3 H 4966.1 c -8.96,147 -13.63,297.4 -13.63,450.3 0,1705.9 577.5,3088.8 1289.88,3088.8" /><path
         id="path200"
         style="fill:#3c8f7c;fill-opacity:1;fill-rule:nonzero;stroke:none"
         d="m 4289.53,3045.5 c 4.03,39.4 6.14,79.6 6.14,120.6 0,457.1 -260.02,827.7 -580.75,827.7 -320.75,0 -580.76,-370.6 -580.76,-827.7 0,-41 2.1,-81.2 6.14,-120.6 h 1149.23" /><path
         id="path202"
         style="fill:#50bfa5;fill-opacity:1;fill-rule:nonzero;stroke:none"
         d="m 4946.79,3248.9 c 4.04,55.5 6.13,112.3 6.13,170.1 0,644.7 -260.01,1167.2 -580.75,1167.2 -320.74,0 -580.75,-522.5 -580.75,-1167.2 0,-57.8 2.1,-114.6 6.13,-170.1 h 1149.24" /><path
         id="path204"
         style="fill:#50bfa5;fill-opacity:1;fill-rule:nonzero;stroke:none"
         d="m 4734.15,2533.6 c -4.04,39.4 -6.14,79.7 -6.14,120.7 0,457.1 260.01,827.6 580.75,827.6 320.75,0 580.76,-370.5 580.76,-827.6 0,-41 -2.1,-81.3 -6.14,-120.7 H 4734.15" /><path
         id="path206"
         style="fill:#3c8f7c;fill-opacity:1;fill-rule:nonzero;stroke:none"
         d="m 3804.7,2533.6 c -5.12,55.6 -7.79,112.4 -7.79,170.2 0,644.6 329.62,1167.2 736.22,1167.2 406.61,0 736.23,-522.6 736.23,-1167.2 0,-57.8 -2.67,-114.6 -7.79,-170.2 H 3804.7" /><path
         id="path208"
         style="fill:#50bfa5;fill-opacity:1;fill-rule:nonzero;stroke:none"
         d="m 4369.97,3871 c -203.21,0 -384.76,-165.8 -504.57,-425.8 -61.01,23.9 -125.83,36.7 -193.03,36.7 -360.8,0 -653.28,-370.5 -653.28,-827.6 0,-41 2.37,-81.3 6.91,-120.7 h 1990.34 c 4.54,55.6 6.91,112.4 6.91,170.2 0,644.6 -292.48,1167.2 -653.28,1167.2" /><path
         id="path210"
         style="fill:#f5fefe;fill-opacity:1;fill-rule:nonzero;stroke:none"
         d="m 16191.4,14125 h -4098.3 c -1.9,20.1 -3,40.4 -3,61.1 0,347.8 281.9,629.7 629.7,629.7 111.2,0 215.5,-28.9 306.2,-79.4 128,352.5 465.9,604.3 862.7,604.3 333.5,0 625.4,-177.9 786.1,-444 70,21.8 144.4,33.6 221.6,33.6 298.4,0 555.8,-175.8 674.4,-429.4 40.8,10.6 83.6,16.3 127.7,16.3 240.3,0 441.3,-167.6 492.9,-392.2" /><g
         transform="scale(1.45727)"
         id="g212"><path
           id="path214"
           style="fill:#f5fefe;fill-opacity:1;fill-rule:nonzero;stroke:none"
           d="m 16299,6996.95 h -1354.3 c 17,74.23 83.5,129.61 162.9,129.61 14.6,0 28.7,-1.87 42.2,-5.38 39.2,83.81 124.2,141.88 222.9,141.88 25.5,0 50,-3.88 73.2,-11.08 53.1,87.92 149.6,146.71 259.8,146.71 131.1,0 242.8,-83.22 285,-199.71 30,16.69 64.5,26.25 101.2,26.25 114.9,0 208.1,-93.17 208.1,-208.1 0,-6.8 -0.3,-13.54 -1,-20.18" /></g><g
         transform="scale(1.12352)"
         id="g216"><path
           id="path218"
           style="fill:#f5fefe;fill-opacity:1;fill-rule:nonzero;stroke:none"
           d="m 16300,10327.8 h -2158.7 c -1,10.6 -1.6,21.3 -1.6,32.2 0,183.2 148.5,331.7 331.8,331.7 58.4,0 113.4,-15.2 161.2,-41.8 67.4,185.6 245.4,318.3 454.4,318.3 175.7,0 329.4,-93.7 414.1,-233.9 36.8,11.5 76.1,17.7 116.7,17.7 157.2,0 292.8,-92.6 355.3,-226.2 21.4,5.6 43.9,8.6 67.2,8.6 126.5,0 232.5,-88.3 259.6,-206.6" /></g><g
         transform="scale(1.41339)"
         id="g220"><path
           id="path222"
           style="fill:#f5fefe;fill-opacity:1;fill-rule:nonzero;stroke:none"
           d="m 16300,9314.51 h -2317.5 c -1,11.37 -1.7,22.89 -1.7,34.55 0,196.65 159.4,356.08 356.1,356.08 62.8,0 121.8,-16.35 173.1,-44.92 72.4,199.33 263.5,341.78 487.9,341.78 188.5,0 353.6,-100.65 444.4,-251.09 39.7,12.32 81.7,18.96 125.3,18.96 168.9,0 314.4,-99.37 381.4,-242.78 23.1,6 47.3,9.2 72.2,9.2 135.9,0 249.6,-94.76 278.8,-221.78" /></g><path
         id="path224"
         style="fill:#f5fefe;fill-opacity:1;fill-rule:nonzero;stroke:none"
         d="M 11457.4,10972.3 H 9824.66 c 20.56,89.5 100.65,156.3 196.34,156.3 17.6,0 34.7,-2.3 50.9,-6.5 47.3,101 149.8,171 268.7,171 30.8,0 60.4,-4.7 88.3,-13.3 64,106 180.3,176.8 313.2,176.8 158,0 292.7,-100.3 343.7,-240.7 36.1,20.1 77.7,31.6 121.9,31.6 138.6,0 250.9,-112.3 250.9,-250.9 0,-8.2 -0.4,-16.3 -1.2,-24.3" /><path
         id="path226"
         style="fill:#f7cc7f;fill-opacity:1;fill-rule:nonzero;stroke:none"
         d="m 15751.8,8148.6 v 44.7 h 151.7 v -44.7 h -151.7" /><path
         id="path228"
         style="fill:#f47458;fill-opacity:1;fill-rule:nonzero;stroke:none"
         d="m 16071.8,7137.1 v 1060.5 c 0,70.1 -56.8,126.9 -126.9,126.9 h -220.8 c -70.1,0 -126.9,-56.8 -126.9,-126.9 V 7137.1 c 0,-70.1 56.8,-126.9 126.9,-126.9 h 220.8 c 70.1,0 126.9,56.8 126.9,126.9" /><path
         id="path230"
         style="fill:#b75742;fill-opacity:1;fill-rule:nonzero;stroke:none"
         d="m 15834.5,7010.2 h 127.4 c 60.7,0 109.9,26.8 109.9,59.9 v 1194.5 c 0,33.1 -34.5,59.9 -95.2,59.9 h -142.1 V 7010.2" /><path
         id="path232"
         style="fill:#1a1a1a;fill-opacity:1;fill-rule:nonzero;stroke:none"
         d="m 15799.6,7532.1 v 306.2 h 56.1 v -306.2 h -56.1" /><g
         transform="scale(1.01374)"
         id="g234"><path
           id="path236"
           style="fill:#355389;fill-opacity:1;fill-rule:nonzero;stroke:none"
           d="m 16300,7042.17 v 761.24 c 0,70.14 -56.8,127.05 -127,127.05 h -214.2 c -70.2,0 -127,-56.91 -127,-127.05 v -761.24 c 0,-70.14 56.8,-126.96 127,-126.96 h 214.2 c 70.2,0 127,56.82 127,126.96" /></g><g
         transform="scale(1.01374)"
         id="g238"><path
           id="path240"
           style="fill:#5184ce;fill-opacity:1;fill-rule:nonzero;stroke:none"
           d="m 16065.9,6915.21 h 125.6 c 60,0 108.5,20.71 108.5,46.27 v 922.72 c 0,25.55 -48.5,46.26 -108.5,46.26 h -125.6 V 6915.21" /></g><g
         transform="scale(1.00341)"
         id="g242"><path
           id="path244"
           style="fill:#f7cc7f;fill-opacity:1;fill-rule:nonzero;stroke:none"
           d="m 16148.7,7874.74 v 34.88 h 151.3 v -34.88 h -151.3" /></g><g
         transform="scale(1.00048)"
         id="g246"><path
           id="path248"
           style="fill:#1a1a1a;fill-opacity:1;fill-rule:nonzero;stroke:none"
           d="m 16243.9,7415.25 v 239.69 h 56.1 v -239.69 h -56.1" /></g><path
         id="path250"
         style="fill:#13375b;fill-opacity:1;fill-rule:nonzero;stroke:none"
         d="m 14040.8,6762.4 h -22.7 v 230.9 h 22.7 v -230.9" /><g
         transform="scale(1.03008)"
         id="g252"><path
           id="path254"
           style="fill:#13375b;fill-opacity:1;fill-rule:nonzero;stroke:none"
           d="m 16300,6564.93 h -22 v 224.16 h 22 v -224.16" /></g><path
         id="path256"
         style="fill:#b75742;fill-opacity:1;fill-rule:nonzero;stroke:none"
         d="m 15798.1,7485 h -1567.5 c -76.9,0 -139.2,-62.3 -139.2,-139.2 v -196.2 c 0,-76.9 62.3,-139.2 139.2,-139.2 h 1567.5 c 76.9,0 139.3,62.3 139.3,139.2 v 196.2 c 0,76.9 -62.4,139.2 -139.3,139.2" /><path
         id="path258"
         style="fill:#91342a;fill-opacity:1;fill-rule:nonzero;stroke:none"
         d="M 15937.4,7247.7 V 7375 c 0,60.8 -37.7,110 -84.1,110 h -1677.8 c -46.5,0 -84.1,-49.2 -84.1,-110 v -127.3 h 1846" /><path
         id="path260"
         style="fill:#f7cc7f;fill-opacity:1;fill-rule:nonzero;stroke:none"
         d="m 14388.6,7164.9 h -62.7 v 151.8 h 62.7 v -151.8" /><path
         id="path262"
         style="fill:#f7cc7f;fill-opacity:1;fill-rule:nonzero;stroke:none"
         d="m 15640.2,7164.9 h 62.703 v 151.797 h -62.703 z" /><path
         id="path264"
         style="fill:#1a1a1a;fill-opacity:1;fill-rule:nonzero;stroke:none"
         d="m 15204.4,7212.8 h -430.1 v 56.1 h 430.1 v -56.1" /><path
         id="path266"
         style="fill:#4e9b87;fill-opacity:1;fill-rule:nonzero;stroke:none"
         d="m 15522.1,7959.6 h -1015.5 c -82.5,0 -149.4,-66.9 -149.4,-149.4 v -175.8 c 0,-82.5 66.9,-149.4 149.4,-149.4 h 1015.5 c 82.5,0 149.5,66.9 149.5,149.4 v 175.8 c 0,82.5 -67,149.4 -149.5,149.4" /><path
         id="path268"
         style="fill:#3c8f7c;fill-opacity:1;fill-rule:nonzero;stroke:none"
         d="m 15671.6,7722.3 v 127.3 c 0,60.8 -26.9,110 -59.9,110 h -1194.6 c -33.1,0 -59.9,-49.2 -59.9,-110 v -127.3 h 1314.4" /><path
         id="path270"
         style="fill:#f7cc7f;fill-opacity:1;fill-rule:nonzero;stroke:none"
         d="m 14533.1,7639.5 h -44.6 v 151.8 h 44.6 v -151.8" /><g
         transform="scale(1.0388)"
         id="g272"><path
           id="path274"
           style="fill:#fae0b2;fill-opacity:1;fill-rule:nonzero;stroke:none"
           d="m 16066.6,6748.96 -1046.8,0.67 -16.9,466.31 h 1063.7 c 128.9,0 233.4,-104.55 233.4,-233.45 0,-128.99 -104.5,-233.53 -233.4,-233.53" /></g><path
         id="path276"
         style="fill:#f7cc7f;fill-opacity:1;fill-rule:nonzero;stroke:none"
         d="m 15834.5,7253.4 c 0,-134 -100,-242.6 -223.4,-242.6 -123.4,0 -223.4,108.6 -223.4,242.6 0,133.9 100,242.5 223.4,242.5 123.4,0 223.4,-108.6 223.4,-242.5" /><path
         id="path278"
         style="fill:#f47458;fill-opacity:1;fill-rule:nonzero;stroke:none"
         d="m 16064.9,6988.1 -0.2,0.2 c -10,7.8 -12,22 -4.6,32.4 73.6,104 94,214.7 60.8,329.3 -18.4,63.7 -49.5,112.4 -67.1,136.5 -7.1,9.7 -5.5,23.2 3.5,31.3 l 0.2,0.2 c 10.4,9.2 26.4,7.5 34.6,-3.7 19.8,-27 53.2,-79.5 73.7,-149.2 26.6,-90.4 35.4,-226.6 -67.2,-371.8 -7.8,-11 -23,-13.4 -33.7,-5.2" /><g
         transform="scale(1.01832)"
         id="g280"><path
           id="path282"
           style="fill:#f47458;fill-opacity:1;fill-rule:nonzero;stroke:none"
           d="m 16166.3,6862.39 -0.2,0.19 c -10,7.66 -11.8,21.61 -4.7,31.82 72.3,102.13 92.4,210.84 59.8,323.38 -18.1,62.55 -48.7,110.38 -65.9,134.04 -6.9,9.53 -5.5,22.78 3.4,30.74 l 0.3,0.19 c 10.2,9.04 25.9,7.37 34,-3.63 19.3,-26.51 52.1,-78.07 72.2,-146.51 26.2,-88.78 34.8,-222.53 -65.9,-365.12 -7.6,-10.8 -22.6,-13.15 -33,-5.1" /></g><path
         id="path284"
         style="fill:#ec5d2c;fill-opacity:1;fill-rule:nonzero;stroke:none"
         d="m 15522.7,7031.2 h -1.4 c -10.2,4.9 -20,10.6 -29.4,17 2.7,0 6.8,-0.1 12.1,-0.1 44.5,0 171.5,6.4 234.9,75.5 37.8,41.2 51.2,98.5 40,170.5 -8.6,55.2 -35.3,97.2 -77.3,121.5 -25.1,14.6 -54.4,21.9 -84.4,21.9 -22.5,0 -45.4,-4.1 -67.3,-12.5 -47.4,-18.2 -86.7,-61.3 -100.3,-109.8 -8.5,-30.5 -11,-76.6 25.3,-123.4 27.7,-35.8 64.3,-47 97,-47 22.5,0 43,5.3 57.5,11.6 30.8,13.3 53.9,45.1 58.9,81 3.8,26.9 -8.4,53.1 -32,68.1 -12,7.7 -25.3,11.5 -38.5,11.5 -13,0 -25.9,-3.7 -37.4,-11.1 -23,-14.8 -28,-37.8 -15.4,-70.2 l -16,-6.2 c -19.7,50.6 1.1,77.3 22.1,90.9 14.3,9.2 30.4,13.8 46.6,13.8 16.5,0 33,-4.7 47.9,-14.2 29.2,-18.7 44.5,-51.3 39.8,-85 -5.9,-41.7 -33,-78.8 -69.2,-94.4 -16.2,-7 -39.3,-13 -64.5,-13 -37.1,0 -78.8,12.8 -110.4,53.7 -31.8,40.9 -41.8,90.1 -28.3,138.5 15.3,54.4 57.7,100.9 110.7,121.2 23.9,9.2 48.9,13.7 73.5,13.7 33,0 65.3,-8.2 93,-24.2 32.5,-18.9 73.8,-57.4 85.7,-133.8 12.1,-77.4 -2.9,-139.5 -44.4,-184.7 -67,-73.1 -183.1,-80.8 -228.8,-80.8" /><path
         id="path286"
         style="fill:#f7cc7f;fill-opacity:1;fill-rule:nonzero;stroke:none"
         d="m 15504.6,7639.5 h -44.6 v 151.8 h 44.6 v -151.8" /><path
         id="path288"
         style="fill:#1a1a1a;fill-opacity:1;fill-rule:nonzero;stroke:none"
         d="m 15149.6,7687.4 h -306.2 v 56.1 h 306.2 v -56.1" /><path
         id="path290"
         style="fill:#000000;fill-opacity:1;fill-rule:nonzero;stroke:none"
         d="m 14243.8,6991.9 -14.8,7.8 517,980 14.8,-7.8 -517,-980" /><path
         id="path292"
         style="fill:#000000;fill-opacity:1;fill-rule:nonzero;stroke:none"
         d="m 15841,6974 -530.3,1005.3 14.8,7.8 530.3,-1005.3 -14.8,-7.8" /><g
         transform="scale(1.03355)"
         id="g294"><path
           id="path296"
           style="fill:#000000;fill-opacity:1;fill-rule:nonzero;stroke:none"
           d="m 16285.1,6765.7 -415.7,1020.07 14.9,6.1 415.7,-1020.08 -14.9,-6.09" /></g><g
         transform="scale(1.00459)"
         id="g298"><path
           id="path300"
           style="fill:#000000;fill-opacity:1;fill-rule:nonzero;stroke:none"
           d="m 16284.4,6961.06 -469.1,1329.29 15.8,5.58 468.9,-1329.3 -15.6,-5.57" /></g><g
         transform="scale(1.03658)"
         id="g302"><path
           id="path304"
           style="fill:#13375b;fill-opacity:1;fill-rule:nonzero;stroke:none"
           d="m 16300,6733.8 h -2874.2 v 30.29 H 16300 v -30.29" /></g><path
         id="path306"
         style="fill:#183658;fill-opacity:1;fill-rule:nonzero;stroke:none"
         d="m 11823,3676.6 c 0,0 2273.4,-377.3 2300.6,-360.9 27.3,16.3 321.7,1286.6 321.7,1286.6 0,0 -1879.9,338 -1910.4,338 -30.4,0 -439.3,-327.1 -444.8,-348.9 -5.4,-21.8 -267.1,-914.8 -267.1,-914.8" /><g
         transform="scale(1.32302)"
         id="g308"><path
           id="path310"
           style="fill:#183658;fill-opacity:1;fill-rule:nonzero;stroke:none"
           d="m 14177.8,2535.03 c 41.2,-4.16 2122.2,40.43 2122.2,40.43 l -156.6,478.75 c 0,0 -288.4,436.2 -440.9,428.27 -57.6,-3.03 -222.6,16.02 -414.2,35.14 -315.9,31.44 -704.1,62.96 -801.5,-4.61 -156.5,-108.54 -296.6,-21.99 -370.7,-281.63 -74.3,-259.63 -132.1,-288.65 -74.3,-445.11 57.7,-156.46 136,-251.24 136,-251.24" /></g><path
         id="path312"
         style="fill:#1a1a1a;fill-opacity:1;fill-rule:nonzero;stroke:none"
         d="m 12033.9,3450.5 c 0,-517.7 419.5,-937.4 937.1,-937.4 517.5,0 937,419.7 937,937.4 0,517.7 -419.5,937.4 -937,937.4 -517.6,0 -937.1,-419.7 -937.1,-937.4" /><path
         id="path314"
         style="fill:#9e9da2;fill-opacity:1;fill-rule:nonzero;stroke:none"
         d="m 12319,3450.5 c 0,-360.2 291.9,-652.2 652,-652.2 360,0 651.9,292 651.9,652.2 0,360.2 -291.9,652.2 -651.9,652.2 -360.1,0 -652,-292 -652,-652.2" /><path
         id="path316"
         style="fill:#d8d9dd;fill-opacity:1;fill-rule:nonzero;stroke:none"
         d="m 12534.9,3450.5 c 0,-240.9 195.2,-436.2 436.1,-436.2 240.8,0 436,195.3 436,436.2 0,240.9 -195.2,436.2 -436,436.2 -240.9,0 -436.1,-195.3 -436.1,-436.2" /><g
         transform="scale(1.29587)"
         id="g318"><path
           id="path320"
           style="fill:#1a1a1a;fill-opacity:1;fill-rule:nonzero;stroke:none"
           d="m 14853.8,2662.69 c 0,-399.5 323.7,-723.38 723.1,-723.38 399.4,0 723.1,323.88 723.1,723.38 0,399.5 -323.7,723.37 -723.1,723.37 -399.4,0 -723.1,-323.87 -723.1,-723.37" /></g><g
         transform="scale(1.27838)"
         id="g322"><path
           id="path324"
           style="fill:#9e9da2;fill-opacity:1;fill-rule:nonzero;stroke:none"
           d="m 15280,2699.12 c 0,-281.76 228.4,-510.18 510.1,-510.18 281.6,0 509.9,228.42 509.9,510.18 0,281.76 -228.3,510.17 -509.9,510.17 -281.7,0 -510.1,-228.41 -510.1,-510.17" /></g><g
         transform="scale(1.26513)"
         id="g326"><path
           id="path328"
           style="fill:#d8d9dd;fill-opacity:1;fill-rule:nonzero;stroke:none"
           d="m 15610.7,2727.38 c 0,-190.42 154.3,-344.79 344.7,-344.79 190.3,0 344.6,154.37 344.6,344.79 0,190.41 -154.3,344.78 -344.6,344.78 -190.4,0 -344.7,-154.37 -344.7,-344.78" /></g><g
         transform="scale(1.37155)"
         id="g330"><path
           id="path332"
           style="fill:#f7cc7f;fill-opacity:1;fill-rule:nonzero;stroke:none"
           d="m 16285.9,3166.19 c -57.7,380.89 -244.4,460.87 -796.8,571.33 -609.5,121.9 -1383.3,519.41 -1383.3,519.41 0,0 -1319.6,646.57 -1642.9,720.79 -323.3,74.15 -1118.2,53.01 -1786,47.68 -667.8,-5.32 -1059.98,-190.81 -1399.16,-455.76 -339.25,-265.03 -927.49,-466.41 -927.49,-466.41 l -106.89,-19.1 c -109.87,-19.61 -189.93,-115.2 -189.93,-226.82 v -945.14 c 0,-107.03 72.11,-200.64 175.57,-227.98 l 386.2,-102.01 c 31.5,-5.46 60.74,16.92 64.24,48.64 42.28,386.71 376.5,680.54 775.11,680.1 423.82,-0.51 771.45,-348.8 771.15,-772.63 0,-48.19 -4.5,-95.29 -13,-141.01 -8.7,-47.17 27.5,-90.7 75.6,-90.7 h 3554.5 c 69,0 122.7,60.67 113.6,129.13 -4.5,32.95 -6.8,66.56 -6.9,100.69 -1.3,418.65 337.3,765.7 755.8,774.3 433.9,8.97 788.5,-340.05 788.5,-771.9 0,-28.58 -1.6,-56.87 -4.6,-84.65 -8.6,-78.67 52.2,-147.57 131.3,-147.57 h 511.2 c 92.9,0 168.3,75.32 168.3,168.28 v 495.06 c 0,65.69 -4.2,131.31 -14.1,196.27" /></g><path
         id="path334"
         style="fill:#cf283c;fill-opacity:1;fill-rule:nonzero;stroke:none"
         d="m 11076.6,5137.1 h 577.4 c 49.5,0 83,-50.3 63.9,-96 l -64.9,-154.7 c -61.8,-147.6 -206.2,-243.6 -366.1,-243.6 h -210.3 c -41.1,0 -74.5,33.4 -74.5,74.5 v 345.3 c 0,41.2 33.4,74.5 74.5,74.5" /><g
         transform="scale(1.36137)"
         id="g336"><path
           id="path338"
           style="fill:#eafcfc;fill-opacity:1;fill-rule:nonzero;stroke:none"
           d="m 15733.1,3597.26 c 233.6,-35.69 502.6,-256.94 502.6,-256.94 64.3,-69.05 11.2,-181.22 -83.1,-175.27 l -455.3,28.72 c -94.6,6.03 -175.3,70.74 -201.6,161.75 -44.3,152.94 -6.6,279.13 237.4,241.74" /></g><path
         id="path340"
         style="fill:#eab054;fill-opacity:1;fill-rule:nonzero;stroke:none"
         d="m 11049.1,3945.9 c -39.8,1 -67.9,-39 -53.3,-75.9 41.5,-104.5 130.4,-186.7 244.2,-216.7 l 593.5,-156.8 c 48.4,-8.3 93.3,26 98.6,74.8 11,100.5 35,196.8 70.1,287.6 11.8,30.8 -10.6,64 -43.5,64.8 l -909.6,22.2" /><g
         transform="scale(1.37534)"
         id="g342"><path
           id="path344"
           style="fill:#eab054;fill-opacity:1;fill-rule:nonzero;stroke:none"
           d="m 15454.6,2691.4 c -32.8,0.8 -58.1,-27.99 -53.9,-60.5 4.7,-36.13 7.2,-72.99 7.2,-110.37 0,-31.7 -1.8,-62.89 -5.1,-93.65 -9.6,-87.03 57.8,-163.3 145.4,-163.3 h 565.6 c 102.8,0 186.2,83.32 186.2,186.21 v 146.36 c 0,41.52 -33.2,75.4 -74.6,76.42 l -770.8,18.83" /></g><g
         id="g346"><g
           clip-path="url(#clipPath352)"
           id="g348"><g
             transform="scale(1.18808)"
             id="g354"><path
               id="path356"
               style="fill:#f6ae51;fill-opacity:1;fill-rule:nonzero;stroke:none"
               d="M 10422.3,5647.52 H 16300 V 3103.75 h -5877.7" /></g></g></g><path
         id="path358"
         style="fill:#95b980;fill-opacity:1;fill-rule:nonzero;stroke:none"
         d="m 11932.4,3573.3 c 0,0.4 0.1,0.9 0.1,1.3 0,-0.4 -0.1,-0.9 -0.1,-1.3 m 0.2,1.8 c 3.1,27.5 7.1,54.6 12.1,81.4 h 0.1 c -5,-26.8 -9.1,-53.9 -12.2,-81.4" /><path
         id="path360"
         style="fill:#182e38;fill-opacity:1;fill-rule:nonzero;stroke:none"
         d="m 11944.8,3656.5 h -0.1 c 1.8,9.8 3.8,19.5 5.9,29.2 v 0 c -2.1,-9.7 -4,-19.4 -5.8,-29.2" /><path
         id="path362"
         style="fill:#e99635;fill-opacity:1;fill-rule:nonzero;stroke:none"
         d="m 11848,3495.2 c -4.8,0 -9.6,0.4 -14.5,1.3 l -593.5,156.8 v 0 c -108.9,28.7 -195,105.2 -238.6,203.3 -1.9,4.4 -3.8,8.9 -5.6,13.4 l 954.8,-184.3 c -2.1,-9.7 -4.1,-19.4 -5.9,-29.2 -5,-26.8 -9,-53.9 -12.1,-81.4 -0.1,-0.2 -0.1,-0.3 -0.1,-0.5 0,-0.4 -0.1,-0.9 -0.1,-1.3 -0.1,-0.7 -0.2,-1.3 -0.3,-2 v 0 c -4.8,-43.9 -41.6,-76.1 -84.1,-76.1" /><g
         transform="scale(1.29995)"
         id="g364"><path
           id="path366"
           style="fill:#95b980;fill-opacity:1;fill-rule:nonzero;stroke:none"
           d="m 16295.1,2550.48 c 0,5.7 0.4,11.39 1,17.16 -0.6,-5.77 -1,-11.46 -1,-17.16 m 1,17.16 c 1.7,15.69 2.9,31.46 3.8,47.38 0,0 0,0 0.1,0 -0.9,-15.92 -2.2,-31.69 -3.9,-47.38" /></g><g
         transform="scale(1.29999)"
         id="g368"><path
           id="path370"
           style="fill:#182e38;fill-opacity:1;fill-rule:nonzero;stroke:none"
           d="m 16299.5,2614.95 c 0.1,3.08 0.3,6.15 0.4,9.31 h 0.1 c -0.2,-3.16 -0.3,-6.23 -0.5,-9.31 0,0 0,0 0,0" /></g><g
         transform="scale(1.37534)"
         id="g372"><path
           id="path374"
           style="fill:#e99635;fill-opacity:1;fill-rule:nonzero;stroke:none"
           d="m 16113.8,2263.58 h -565.6 c -3.9,0 -7.9,0.15 -11.7,0.44 -76.4,6.03 -134.8,70.38 -134.7,146.65 0,5.38 0.4,10.76 1,16.21 v 0 0 c 1.6,14.84 2.8,29.74 3.7,44.79 0.1,2.91 0.3,5.82 0.4,8.8 h 893.1 v -30.68 c 0,-102.89 -83.4,-186.21 -186.2,-186.21" /></g><g
         transform="scale(1.17794)"
         id="g376"><path
           id="path378"
           style="fill:#eab054;fill-opacity:1;fill-rule:nonzero;stroke:none"
           d="m 16281.3,2896.16 c -0.1,44.99 3.2,89.39 9.4,132.78 7.6,52.2 -31.2,99.41 -83.9,100.77 l -4304.7,105.01 c -47.1,1.19 -80.9,-43.64 -68,-88.88 22.3,-78.79 34.2,-161.81 34.2,-247.47 -0.1,-56.8 -5.3,-112.32 -15.2,-166.22 -10.5,-56.29 32,-108.41 89.3,-108.41 h 4212.4 c 82.7,0 145.2,73.09 134.4,155.01 -5.1,38.46 -7.7,77.6 -7.9,117.41" /></g><g
         transform="scale(1.1766)"
         id="g380"><path
           id="path382"
           style="fill:#182e38;fill-opacity:1;fill-rule:nonzero;stroke:none"
           d="m 16299.9,2899.47 v 0 c 0,0.68 0,1.44 0,2.21 h 0.1 l -0.1,-2.21" /></g><g
         transform="scale(1.17726)"
         id="g384"><path
           id="path386"
           style="fill:#e99635;fill-opacity:1;fill-rule:nonzero;stroke:none"
           d="m 16164.2,2625.26 h -4214.9 c -51.5,0 -91,42.12 -91,91.48 0,5.61 0.5,11.3 1.6,16.99 10,53.94 15.2,109.49 15.2,166.32 h 4415.7 c -0.1,-0.77 -0.1,-1.53 -0.1,-2.21 v 0 c 0.2,-39.84 2.8,-79 7.9,-117.48 0.8,-6.03 1.2,-12.06 1.2,-18.09 0.2,-74.33 -59,-137.01 -135.6,-137.01" /></g><path
         id="path388"
         style="fill:#eafcfc;fill-opacity:1;fill-rule:nonzero;stroke:none"
         d="m 12990.7,5451.5 2802.4,-26.5 c 0,0 171.5,4.6 194.8,166 23.4,161.4 21.4,852.7 21.4,852.7 0,0 -20.4,138.8 -153.3,140.6 -80.8,1 -757.8,49.4 -1416.3,-30.8 -537.2,-65.4 -1034.1,-310.8 -1410.9,-687.6 l -198.9,-199 c 0,0 -134.2,-212.6 160.8,-215.4" /><g
         transform="scale(1.15706)"
         id="g390"><path
           id="path392"
           style="fill:#eafcfc;fill-opacity:1;fill-rule:nonzero;stroke:none"
           d="m 14105.8,5493.26 v -626.42 c 0,-81.33 62.5,-148.22 141.4,-151.42 l 1903.1,-76.49 c 43.7,-1.73 86.5,17.98 111.6,54.88 34.1,50.39 38.1,133.19 -132.5,244.24 -296.5,193.08 -1051,610.78 -1330.1,651.23 -177.7,25.66 -410.2,36.81 -555.6,41.57 -75.5,2.42 -137.9,-59.9 -137.9,-137.59" /></g><path
         id="path394"
         style="fill:#b75742;fill-opacity:1;fill-rule:nonzero;stroke:none"
         d="m 13405.9,5789.6 c 0,0 1826,207.9 1865.1,171.9 39.2,-36 292.9,-629.8 339,-792.2 l -2150.7,20.3 -151.4,228.4 98,371.6" /><g
         transform="scale(1.0732)"
         id="g396"><path
           id="path398"
           style="fill:#263d60;fill-opacity:1;fill-rule:nonzero;stroke:none"
           d="m 16099,5242.66 c 0,0 156.6,-185.34 201,-385.3 l -49.3,-80.14 -98.9,104.83 -52.8,360.61" /></g><g
         transform="scale(1.07202)"
         id="g400"><path
           id="path402"
           style="fill:#1a1a1a;fill-opacity:1;fill-rule:nonzero;stroke:none"
           d="m 16284,5734.94 c -30.1,195.8 -207.1,336.66 -392.3,241.6 -41.6,-21.36 -98,-64.73 -126.8,-101.67 -77.7,-99.91 -97.6,-223.23 -177.9,-320.15 29.5,-22.38 65.2,-45.89 107.7,-68.46 l 50,66.69 -17.3,-83.21 c 124.4,-59.51 299.9,-108.67 540,-107.27 30.2,136 32.6,268 16.6,372.47" /></g><g
         transform="scale(1.07161)"
         id="g404"><path
           id="path406"
           style="fill:#355389;fill-opacity:1;fill-rule:nonzero;stroke:none"
           d="m 15874.7,5306.2 c 0,0 -178.2,11.3 -248.7,-65.41 -70.5,-76.71 156.4,-683.74 169.2,-781.35 12.8,-97.7 -105.2,-292.36 -105.2,-292.36 0,0 490.4,-229.47 610,-150.43 0,0 -19.1,782.65 -32,852.36 -12.8,69.8 -119.6,353.49 -145.2,381.39 -25.7,27.9 -248.1,55.8 -248.1,55.8" /></g><g
         transform="scale(1.05818)"
         id="g408"><path
           id="path410"
           style="fill:#f7a491;fill-opacity:1;fill-rule:nonzero;stroke:none"
           d="m 16136.2,5614.24 c 0,0 -0.9,-5.29 -2.6,-14.27 -8.1,-43.37 -39,-187.02 -59.9,-226.61 -25.4,-47.73 86.5,-199.97 194.2,-181.45 32.1,5.58 -27.1,139.96 -24.2,154.23 5.4,27.22 12.7,64.36 20.3,102.53 4.2,21.45 8.6,43.29 12.7,63.79 11.5,58.22 20.8,105.84 20.8,105.84 l -161.3,-4.06" /></g><path
         id="path412"
         style="fill:#b75742;fill-opacity:1;fill-rule:nonzero;stroke:none"
         d="m 13419.5,5754.5 c -1.9,12.6 -6.7,24.3 -13.6,35.1 l -271.4,-271.5 c 0,0 -204.1,-323.5 244.7,-327.7 l 123.4,-1.2 -83.1,565.3" /><g
         transform="scale(1.04738)"
         id="g414"><path
           id="path416"
           style="fill:#5c352d;fill-opacity:1;fill-rule:nonzero;stroke:none"
           d="m 16299.7,5656.3 c 0.1,0.48 0.2,0.96 0.3,1.43 -0.1,-0.47 -0.2,-0.95 -0.3,-1.43" /></g><g
         transform="scale(1.05802)"
         id="g418"><path
           id="path420"
           style="fill:#f69680;fill-opacity:1;fill-rule:nonzero;stroke:none"
           d="m 16266.5,5449.87 c -24.9,3.6 -50.9,15.69 -77,38.56 -28.4,24.86 -47.2,54.73 -58.4,86.68 1.9,9.45 3.4,17.77 4.6,24.29 0.1,0.47 0.2,0.94 0.3,1.42 v 0 c 1.7,8.97 2.7,14.27 2.7,14.27 l 161.3,4.06 c 0,0 -9.4,-47.63 -20.9,-105.86 v 0 c -4.1,-20.41 -8.3,-42.06 -12.6,-63.42" /></g><g
         transform="scale(1.0658)"
         id="g422"><path
           id="path424"
           style="fill:#f7a491;fill-opacity:1;fill-rule:nonzero;stroke:none"
           d="m 16128.7,5937.87 c 0,0 -75.6,8.63 -122.8,-52.45 -47.4,-61.18 -98.5,-250.24 19.2,-352.98 117.6,-102.83 233.7,13.51 251,136.9 17.1,123.38 23.9,272.94 -147.4,268.53" /></g><g
         transform="scale(1.06743)"
         id="g426"><path
           id="path428"
           style="fill:#f7a491;fill-opacity:1;fill-rule:nonzero;stroke:none"
           d="m 16285.9,5662.48 c -13.9,-27.17 -37.4,-42.25 -52.4,-33.63 -15.1,8.62 -15.8,37.66 -1.9,64.92 14.1,27.17 37.6,42.25 52.6,33.64 15,-8.63 15.8,-37.67 1.7,-64.93" /></g><g
         transform="scale(1.05515)"
         id="g430"><path
           id="path432"
           style="fill:#1a1a1a;fill-opacity:1;fill-rule:nonzero;stroke:none"
           d="m 16300,6018.18 c 0,0 -101.9,-181.59 -174.8,-190.02 -72.9,-8.34 -82.5,-104.91 -82.5,-104.91 0,0 26.1,222.43 98.3,265.26 72.1,42.94 159,29.67 159,29.67" /></g><g
         transform="scale(1.04546)"
         id="g434"><path
           id="path436"
           style="fill:#f7a491;fill-opacity:1;fill-rule:nonzero;stroke:none"
           d="m 16294,5836.19 c 6,-32.62 -6,-62.46 -26.9,-66.67 -20.9,-4.31 -42.6,18.65 -48.5,51.17 -6,32.52 6,62.37 26.9,66.67 20.7,4.3 42.5,-18.65 48.5,-51.17" /></g><g
         transform="scale(1.04345)"
         id="g438"><path
           id="path440"
           style="fill:#f48c7f;fill-opacity:1;fill-rule:nonzero;stroke:none"
           d="m 16066.2,4557.68 c -0.4,1.72 68.9,296.33 96.9,361.4 28,65.17 136.9,367.72 136.9,367.72 l -140.9,30.76 c 0,0 -90.9,-236.71 -132.4,-343.76 -41.4,-107.05 -23.7,-304.38 -25.5,-360.06 l -6.2,-47.92 c -1.4,-6.13 -2.7,-11.3 -3.3,-12.26 -1.7,-2.78 -6.5,-21.37 -6.7,-23 -0.3,-1.63 -4.4,-7.96 -6.1,-10.64 -1.7,-2.78 -5.5,-40.63 -6.3,-46.67 -0.8,-6.14 1.8,-19.94 1.8,-19.94 l -1.4,-25.39 c -1.1,-18.6 18.2,-13.71 18.2,-13.71 -0.5,-8.81 2.6,-13.42 7.5,-15.04 3.2,-1.06 6.6,-0.87 9,-0.67 1.4,0.09 2.4,0.19 2.8,0.09 0.8,-0.38 1.2,-3.16 1.2,-3.16 -0.5,-5.56 5.9,-9.87 9.9,-10.64 4,-0.86 11.3,1.92 13.3,4.31 2.1,2.4 3.6,2.01 3.6,2.01 4.1,-3.44 19.8,-3.35 23.4,1.73 3.7,5.08 6.9,31.91 8.6,34.21 1.6,2.5 5.1,6.62 5.6,10.45 0.6,3.83 13.4,31.24 14.2,36.71 0.8,5.46 -7.2,23.96 -9,35.07 -1.7,11.02 -12.6,28.18 -15.1,33.16 -1,1.92 -0.7,8.24 0,15.24 v 0" /></g><g
         transform="scale(1.05828)"
         id="g442"><path
           id="path444"
           style="fill:#ffffff;fill-opacity:1;fill-rule:nonzero;stroke:none"
           d="m 16300,5649.44 -116.7,6.05 c 0,0 0.4,-44.51 51.6,-48.67 62.5,-5.01 65.1,42.62 65.1,42.62" /></g><g
         transform="scale(1.03506)"
         id="g446"><path
           id="path448"
           style="fill:#f7a491;fill-opacity:1;fill-rule:nonzero;stroke:none"
           d="m 16012.2,5685.01 -43.2,-285.68 c 0,0 157.8,-340.18 252,-310.62 79,24.74 30.4,325.69 30.4,325.69 0,0 -43.1,161.63 -30.1,242.59 12.8,80.87 -209.1,28.02 -209.1,28.02" /></g><g
         transform="scale(1.03087)"
         id="g450"><path
           id="path452"
           style="fill:#f47458;fill-opacity:1;fill-rule:nonzero;stroke:none"
           d="m 16287.1,5679.95 c 12.9,81.2 -209.9,28.14 -209.9,28.14 l -3.6,-23.77 c 6.6,-15.91 14.5,-29.49 24.1,-39.97 49.8,-53.74 127.6,-86.04 194.9,-88.46 -6.8,43.84 -10.8,90.69 -5.5,124.06" /></g><g
         transform="scale(1.04002)"
         id="g454"><path
           id="path456"
           style="fill:#f7a491;fill-opacity:1;fill-rule:nonzero;stroke:none"
           d="m 15899.6,6060.18 c -6.2,2.31 -50.1,-323.84 33,-413.55 83.2,-89.71 245.1,-119.13 303.2,-48.46 64.2,78.17 60.9,428.65 -68.3,520.95 -129.1,92.31 -267.9,-58.94 -267.9,-58.94" /></g><g
         transform="scale(1.03599)"
         id="g458"><path
           id="path460"
           style="fill:#13375b;fill-opacity:1;fill-rule:nonzero;stroke:none"
           d="m 16181.1,6318.03 c -100.3,-20.47 -165.3,-81.95 -189.1,-108.11 -45.5,-5.41 -107.4,-30.7 -171.3,-136.78 -78.5,-130.5 -20.5,-275.19 70.9,-346.05 91.5,-70.94 90.2,-152.89 90.2,-152.89 l 14.4,42.37 c 10.7,32.05 15.1,66.12 11.5,99.81 -2.1,20.17 -6.4,42.08 -14.8,60.04 -22,47.39 47.3,78.86 66.7,118.24 14.9,30.41 15.7,99.81 39.2,150 l 28.1,38.32 c 0,0 65,50.68 128.4,36.3 31.1,-6.95 44.7,46.62 35.6,100.1 -9.5,56.08 -44,112.16 -109.8,98.65" /></g><g
         transform="scale(1.02048)"
         id="g462"><path
           id="path464"
           style="fill:#f7a491;fill-opacity:1;fill-rule:nonzero;stroke:none"
           d="m 16299.3,5925.16 c 0.7,-40.57 -17.6,-73.79 -40.9,-74.18 -23.5,-0.39 -42.9,32.14 -43.6,72.71 -0.6,40.57 17.8,73.69 41.1,74.18 23.3,0.4 42.7,-32.14 43.4,-72.71" /></g><g
         transform="scale(1.03704)"
         id="g466"><path
           id="path468"
           style="fill:#ffffff;fill-opacity:1;fill-rule:nonzero;stroke:none"
           d="m 16174.4,5738.33 125.6,6.47 c 0,0 -0.5,-48.02 -55.6,-52.46 -67.2,-5.5 -70,45.99 -70,45.99" /></g><g
         transform="scale(1.05531)"
         id="g470"><path
           id="path472"
           style="fill:#3c8f7c;fill-opacity:1;fill-rule:nonzero;stroke:none"
           d="m 15627.5,5306.96 c 11.3,21.13 32.4,35.34 56.4,37.43 103.6,9.28 388.8,9.47 534.2,-242.4 23,-39.7 39.4,-82.81 51.3,-127.16 l 30.6,-126.22 -750.1,24.45 1.2,83.29 c -7.6,121.67 18.9,243.06 76.4,350.61" /></g><g
         transform="scale(1.13466)"
         id="g474"><path
           id="path476"
           style="fill:#1a1a1a;fill-opacity:1;fill-rule:nonzero;stroke:none"
           d="m 16191.9,4466.73 101.3,411.4 c 6.8,27.58 -10,55.35 -37.6,62.13 -27.5,6.79 -55.4,-10.04 -62.2,-37.54 l -106.2,-431.23 104.7,-4.76" /></g><g
         transform="scale(1.13621)"
         id="g478"><path
           id="path480"
           style="fill:#f7a491;fill-opacity:1;fill-rule:nonzero;stroke:none"
           d="m 15908.3,4472.48 c 28.7,17.87 51.9,32.57 67.5,42.07 1.2,0.71 74.1,35.74 75.3,36.35 v 0 c 10.2,3.79 18.9,6.78 21,6.78 5.5,0.17 37.2,10.82 39.7,12.05 2.6,1.15 15.6,1.15 21.2,1.24 5.5,0.17 64,30.36 73.7,34.94 9.6,4.57 27.1,21.56 27.1,21.56 l 38.2,21.83 c 28,16.02 2.7,39.43 2.7,39.43 13.2,7.57 16.9,16.37 14.6,25.17 -2.2,8.71 -9.8,15.84 -10.2,17.51 -0.3,1.76 3.4,4.84 3.4,4.84 8.5,4.58 8.8,17.78 6.1,24.47 -2.7,6.6 -13.4,14.61 -18.9,15.32 -5.4,0.61 -6.3,3.08 -6.3,3.08 1.2,9.24 -13.9,32.03 -24.7,32.47 -5.5,0.27 -18.9,-4.84 -31.5,-9.95 -12.3,-5.01 -23.8,-10.03 -26.4,-9.94 -5,0.09 -14.2,1.32 -20.3,-1.58 -6.2,-2.91 -58.1,-10.04 -66.8,-14.17 -8.6,-4.05 -27.8,-33.09 -42.2,-46.12 -14.4,-13.03 -29.1,-44.98 -33.8,-53.43 -1.9,-3.25 -11.3,-8.88 -22.1,-14.43 v 0 c -1.7,-1.76 -319.3,-116.53 -507.4,-172.59 l 420.1,-16.9" /></g><g
         transform="scale(1.03988)"
         id="g482"><path
           id="path484"
           style="fill:#50bfa5;fill-opacity:1;fill-rule:nonzero;stroke:none"
           d="m 16300,4930.29 c -21.4,129.15 -48,264.94 -76.5,327.54 -62.4,137.42 -273,219.26 -376.2,133.86 -55.1,-45.58 -31.4,-262.53 15.5,-449.85 l 437.2,-11.55" /></g><path
         id="path486"
         style="fill:#3c8f7c;fill-opacity:1;fill-rule:nonzero;stroke:none"
         d="m 13768.7,5904.3 c 0,0 -268.3,6.6 -359.3,-53.6 -91.1,-60.3 -80,-660.1 -80,-660.1 l 88.4,-16.8 c 0,0 32.1,-412.8 100.7,-434.3 68.5,-21.5 518.9,116.7 612.5,232.8 93.6,116.2 -198.2,971.9 -198.2,971.9 l -164.1,-39.9" /><path
         id="path488"
         style="fill:#f7a491;fill-opacity:1;fill-rule:nonzero;stroke:none"
         d="m 14245.5,6380 c 23.3,72.5 39,291.4 44.1,365.7 -3.6,5.4 -23.1,37.3 -21.1,99.6 1.5,44 -29.3,116.9 -1,112 28.2,-5 29.7,-81.4 46.6,-68.2 16.9,13.1 24.7,173.1 50.3,168.6 25.5,-4.5 8.2,-155.1 23.3,-143.3 15.2,11.7 15.8,150.7 52,144.3 36.2,-6.3 -15.9,-163.3 3.5,-166.7 19.4,-3.4 49.6,96.4 78.7,91.4 29.1,-5.1 -47.8,-134.5 -38.9,-127.6 8.9,7 70.9,59.8 81.2,48 11.7,-13.4 -131.9,-164.6 -132.3,-204.4 11.9,-100.8 35.7,-283.4 3.2,-398.2 -39.7,-140.4 -141.7,-452.4 -141.7,-452.4 l -217.3,51.7 c 0,0 141.7,393.6 169.4,479.5" /><path
         id="path490"
         style="fill:#f48c7f;fill-opacity:1;fill-rule:nonzero;stroke:none"
         d="m 14338,6859.5 c 10.7,-4.8 19.5,-12.2 27.3,-20.6 0.8,-1.7 28,-27.3 21,-68.9 -4.7,25.4 -10.1,53.7 -48.3,89.5" /><path
         id="path492"
         style="fill:#f7a491;fill-opacity:1;fill-rule:nonzero;stroke:none"
         d="m 12948.4,5786.9 c 0,0 5.5,34.9 -23.5,88.9 -18.7,34.6 -24.3,105.2 -43.8,90 -19.5,-15.1 9.8,-76.9 -8.3,-73.1 -18.2,3.8 -87.8,128.7 -105.4,114.9 -17.7,-13.7 55.5,-127.4 39.3,-124 -16.3,3.4 -72.1,114.3 -97.1,94.9 -25,-19.5 77.2,-124.4 63.8,-134.9 -13.4,-10.4 -76.2,57.4 -96.3,41.8 -20.1,-15.7 89.9,-88.5 80.4,-86.6 -9.6,2 -77.8,19.6 -80.9,6.1 -3.5,-15.4 138.9,-60.3 155.1,-91.9 16.2,-31.7 261.1,-347.5 331,-347.6 70,-0.2 384.2,212.5 407,281.6 22.8,69.2 -5.6,142.5 -51.4,152 -45.8,9.6 -338.7,-201.3 -353.1,-198.3 -14.4,3 -216.8,186.2 -216.8,186.2" /><path
         id="path494"
         style="fill:#f48c7f;fill-opacity:1;fill-rule:nonzero;stroke:none"
         d="m 12875.6,5863.4 c -6.9,-9.4 -11,-20.3 -13.6,-31.4 0.2,-1.9 -10.8,-37.5 15.8,-70.3 -8.4,24.5 -17.7,51.7 -2.2,101.7" /><path
         id="path496"
         style="fill:#b75742;fill-opacity:1;fill-rule:nonzero;stroke:none"
         d="m 13610.3,5350.9 c 0,0 282.1,-224.3 313.3,-270.1 23.3,-34.2 -54.2,-420 -54.2,-420 0,0 -111.6,-3.5 -162.6,36.2 0,0 30.5,266.6 17.1,277 -13.4,10.5 -323,148.1 -323,148.1 l 19.6,158.2 189.8,70.6" /><path
         id="path498"
         style="fill:#9bc1f9;fill-opacity:1;fill-rule:nonzero;stroke:none"
         d="m 14151.5,6158.1 c 0,0 48.9,-9.1 215.7,-191.3 l -194,-394.6 -179.3,328 157.6,257.9" /><path
         id="path500"
         style="fill:#9bc1f9;fill-opacity:1;fill-rule:nonzero;stroke:none"
         d="m 13836.8,5879.8 c 0,0 127.5,28.5 172.2,50.4 44.6,21.9 457.8,-951.7 353.6,-986 -217.6,-71.8 -782.5,-261.6 -782.5,-261.6 0,0 -16.3,56.5 4.3,159.1 35.5,177.8 23.7,574.7 16.3,644 -4.4,40.8 -245.5,-77.2 -245.5,-77.2 l -94.9,307.7 c 0,0 275.1,93.7 367.4,123.4 25.8,8.2 209.1,40.2 209.1,40.2" /><path
         id="path502"
         style="fill:#3c8f7c;fill-opacity:1;fill-rule:nonzero;stroke:none"
         d="m 14308.3,5277.1 c -51.6,160.6 -393.3,622.4 -396.3,626.8 l 55.8,38.1 c 12.5,-18.3 290.9,-409.8 345.5,-579.7 l -5,-85.2" /><path
         id="path504"
         style="fill:#3c8f7c;fill-opacity:1;fill-rule:nonzero;stroke:none"
         d="m 13567.2,4979 -35.4,44.9 c 2.4,1.9 240.2,192.4 246.6,403.5 6.5,213.2 -165.4,418.1 -167.1,420.2 l 43.5,37 c 7.7,-9 187.9,-223.4 180.8,-459 -7.3,-237.8 -257.7,-438.1 -268.4,-446.6" /><path
         id="path506"
         style="fill:#1a1a1a;fill-opacity:1;fill-rule:nonzero;stroke:none"
         d="m 13775.8,6530.8 c 0,0 100.9,74.9 196.5,-46.7 76.2,-97 66.1,-66.5 103.8,-114.7 37.6,-48.3 94.5,-52.4 103.1,-132.7 8.7,-80.2 -27.4,-96.7 -27.4,-96.7 0,0 40.6,-58.8 10,-127 -30.5,-68.2 -117.9,-133.5 -197,-133 0,0 -110.4,-77 -231.4,-59.3 -120.9,17.7 -79.9,22.2 -128.1,17 -48.1,-5.2 -185.4,46.8 -174.3,145.3 0,0 -89.5,85.7 -20.8,171 68.7,85.2 105.9,144.6 139.3,252.8 33.4,108.2 170.1,143.2 226.3,124" /><path
         id="path508"
         style="fill:#f7a491;fill-opacity:1;fill-rule:nonzero;stroke:none"
         d="m 13910.8,5976.9 c 0,0 11,-142.5 25.8,-154.4 14.7,-11.9 35.7,-32 19.8,-68 -16,-36 -103.5,-23.5 -145.2,-8.4 -40.1,14.5 -68.4,46.5 -68.4,46.5 l -4.3,227 172.3,-42.7" /><path
         id="path510"
         style="fill:#f48c7f;fill-opacity:1;fill-rule:nonzero;stroke:none"
         d="m 13860.5,5911.9 c -28.3,6.7 -78.1,20 -121.4,76 l -0.6,31.7 172.3,-42.7 c 0,0 2.7,-34.8 7.2,-71.4 -23.3,-1.5 -43.9,3.3 -57.5,6.4" /><path
         id="path512"
         style="fill:#f7a491;fill-opacity:1;fill-rule:nonzero;stroke:none"
         d="m 13669.2,6144.1 c 0,0 -13,83.1 -62.5,61.4 -49.5,-21.8 3.1,-143.6 45.2,-134.8 42,8.7 17.3,73.4 17.3,73.4" /><path
         id="path514"
         style="fill:#f7a491;fill-opacity:1;fill-rule:nonzero;stroke:none"
         d="m 13823.8,6467.1 c 0,0 80,10.4 127.8,-47.6 47.7,-58 111.4,-231.5 56.9,-361.8 -54.5,-130.3 -144.2,-109.3 -181.2,-100.6 -37,8.6 -110.4,28.7 -158.5,139.8 -48,111.2 -50,372.5 155,370.2" /><path
         id="path516"
         style="fill:#f7a491;fill-opacity:1;fill-rule:nonzero;stroke:none"
         d="m 15459.9,5139.2 147.5,-704.3 -254.4,24.7 -122.5,644.1 229.4,35.5" /><path
         id="path518"
         style="fill:#5184ce;fill-opacity:1;fill-rule:nonzero;stroke:none"
         d="m 15503.6,5118.5 -273.1,-14.8 c 0,0 -20.3,188.6 -25,278.8 -5.7,109.4 -3.6,250.8 9.7,248.5 37.6,-6.6 88.6,-24.5 120.4,-63.8 110.2,-136.1 168,-448.7 168,-448.7" /><path
         id="path520"
         style="fill:#eafcfc;fill-opacity:1;fill-rule:nonzero;stroke:none"
         d="m 15324,5407.2 c 6.6,-33.2 179.6,-953.6 179.6,-953.6 -409.5,-224.5 -722.1,-33 -722.1,-33 0,0 15.6,618.8 -5.3,704.7 -13.9,56.8 -64.3,430.8 -27.6,443.4 47,16.1 118,39.9 177.3,49.2 50.6,7.9 248.1,21.2 284.1,11.1 0,0 86.5,-82.6 114,-221.8" /><path
         id="path522"
         style="fill:#13375b;fill-opacity:1;fill-rule:nonzero;stroke:none"
         d="m 15177.3,6285.4 c 0,0 165.6,2.5 151.9,-134.7 0,0 123.2,-47.9 41.1,-158.9 0,0 87.6,-119.5 -64.9,-234.1 0,0 -40.5,-160.4 -213.2,-83.7 0,0 -51.1,-38.2 -121.8,12.8 -70.7,51 -79.9,81.2 -79.9,81.2 0,0 -156.3,29.7 -134.8,173.4 0,0 -82.1,70 41.9,157.9 0,0 -2.3,197.2 165.3,170.6 0,0 97.8,150.5 214.4,15.5" /><path
         id="path524"
         style="fill:#f7a491;fill-opacity:1;fill-rule:nonzero;stroke:none"
         d="m 14917.9,5962.5 c -4.5,-35 -27.3,-60.9 -51,-57.9 -23.6,3.1 -39.2,33.9 -34.7,68.9 4.5,35 27.3,60.9 51,57.8 23.6,-3 39.1,-33.8 34.7,-68.8" /><path
         id="path526"
         style="fill:#f7a491;fill-opacity:1;fill-rule:nonzero;stroke:none"
         d="m 15306.7,5855.6 c -14.5,-32.1 -43.9,-50.2 -65.7,-40.4 -21.7,9.8 -27.5,43.8 -13,76 14.5,32.1 43.9,50.2 65.6,40.4 21.8,-9.8 27.6,-43.8 13.1,-76" /><path
         id="path528"
         style="fill:#f7a491;fill-opacity:1;fill-rule:nonzero;stroke:none"
         d="m 15107.1,5749 c -0.2,-2.5 13.9,-92.6 21.3,-140.3 2.8,-17.7 -7.3,-34.9 -24.2,-41.2 -45.1,-16.7 -132.9,-38.1 -188.2,20 -5,5.3 -7.4,12.6 -6.6,19.9 l 22.9,210.8 174.8,-69.2" /><path
         id="path530"
         style="fill:#f48c7f;fill-opacity:1;fill-rule:nonzero;stroke:none"
         d="m 15120.7,5658.2 c -47.8,-19.9 -186.2,-2.7 -196.6,84.5 l 8.2,75.5 174.8,-69.2 c -0.1,-1.2 9.4,-63.3 13.6,-90.8" /><path
         id="path532"
         style="fill:#f7a491;fill-opacity:1;fill-rule:nonzero;stroke:none"
         d="m 15151.8,6178.4 c 0,0 -72.8,15.8 -142.5,-27.4 -69.6,-43.3 -182.6,-213.3 -88.1,-361 94.5,-147.8 254.9,-75.5 311.4,41.6 56.5,117 80.6,291.3 -80.8,346.8" /><path
         id="path534"
         style="fill:#ffffff;fill-opacity:1;fill-rule:nonzero;stroke:none"
         d="m 15106.8,5812.7 -97,5.6 c 0,0 0.1,-37 42.7,-40.6 51.9,-4.5 54.3,35 54.3,35" /><path
         id="path536"
         style="fill:#13375b;fill-opacity:1;fill-rule:nonzero;stroke:none"
         d="m 15276.3,6095.5 c 0,0 -70.6,37.8 -123.2,32.9 -52.7,-5 -224.1,-129.6 -249,-108.8 -24.9,20.9 7.2,131.1 27.1,147.1 19.9,16 99.3,64.1 106.1,65 6.8,0.9 78.9,-0.4 91.2,-3.6 12.4,-3.2 101.6,-45.7 101.6,-45.7 l 46.2,-86.9" /><path
         id="path538"
         style="fill:#f7a491;fill-opacity:1;fill-rule:nonzero;stroke:none"
         d="m 14250.2,4370.1 c 1.5,4.2 5.1,4.4 8.9,4.6 36.1,2.3 72.2,5 107.9,11.5 6,1.1 11.8,2.7 17.3,5 9.8,4.3 19.7,4.5 29.8,2.1 5.5,-1.4 11.1,-1.5 16.7,-1.3 18.2,0.7 69.6,20 96.1,25.5 6,1.2 10.7,6 12,12 23,104.6 72,339.1 76.8,415.9 6.3,98.1 60,541.5 60,541.5 l 182.4,-44.7 c 0,0 -64.2,-328.1 -79.8,-486.7 -12,-122.4 -125.8,-385.1 -161.6,-460.7 -17,-56 -58.8,-58.8 -68.5,-60.3 -5.5,-0.9 -10.6,-3.8 -14.1,-8.1 -6.3,-7.9 -13.7,-14.9 -22.2,-20.6 -6.3,-4.2 -11,-9.7 -15.1,-16 -7.3,-11.4 -13.8,-23.4 -20.2,-35.3 -4.3,-8 -8.9,-10.6 -15.7,-9 -7.2,1.8 -10.8,7 -10.9,15.7 -0.2,12.9 3.5,24.8 9.7,36 5.7,10.5 5.1,16.5 -2.3,25.7 -4.2,5.4 -8.6,10.5 -14.1,14.7 -5.5,4.3 -11.3,7.4 -18.7,6.2 -12.9,-3.7 -25.9,-6.7 -39.2,-8.6 l -10.8,-2.6 -6,-1.5 c -0.9,-0.2 -20.1,-2.9 -26.6,-3.2 -5.3,-0.1 -13.9,-0.7 -21.2,-1.3 -6.6,-0.6 -20.6,2.5 -21.1,2.5 -6.4,-0.1 -12.2,2 -17.1,6.2 -2,1.7 -4,3.6 -3.1,6.6 0.9,2.8 3,4 5.8,4.6 4.3,1 26.6,4.4 26.4,5.3 -6.7,-0.2 -27.6,-0.3 -34.3,-0.4 -9,0 -16.9,3 -23.3,9.4 -2.5,2.6 -5.4,5.1 -3.9,9.3" /><path
         id="path540"
         style="fill:#5184ce;fill-opacity:1;fill-rule:nonzero;stroke:none"
         d="m 14554,5120.1 264.2,-127.8 c 0,0 41.5,194.1 72.5,314.1 26.6,103.1 -105.1,286.7 -148.9,261.5 -98.2,-56.1 -187.8,-447.8 -187.8,-447.8" /><g
         transform="scale(1.14663)"
         id="g542"><path
           id="path544"
           style="fill:#f7cc7f;fill-opacity:1;fill-rule:nonzero;stroke:none"
           d="m 14250.5,4763.54 2049.5,-87.21 c 0,0 -178.8,-598.1 -183.1,-627.93 -4.4,-29.83 -677,-396.82 -846,-392.46 -169,4.45 -563.1,145.82 -648,170.86 -84.8,24.94 -305.1,196.74 -291.9,302.53 13.3,105.7 -80.5,634.21 -80.5,634.21" /></g><g
         transform="scale(1.04567)"
         id="g546"><path
           id="path548"
           style="fill:#eab054;fill-opacity:1;fill-rule:nonzero;stroke:none"
           d="m 16273,4890.72 h -603 c -14.8,0 -27,12.14 -27,26.97 v 52.12 c 0,14.92 12.2,26.96 27,26.96 h 603 c 14.9,0 27,-12.04 27,-26.96 v -52.12 c 0,-14.83 -12.1,-26.97 -27,-26.97" /></g><g
         transform="scale(1.08021)"
         id="g550"><path
           id="path552"
           style="fill:#f7cc7f;fill-opacity:1;fill-rule:nonzero;stroke:none"
           d="m 16005.2,5946.5 294.8,-121.27 -16.8,60.64 -109.9,60.63 c 0,0 -90.1,17.5 -98.9,22.13 -8.7,4.72 -69.2,-22.13 -69.2,-22.13" /></g><g
         transform="scale(1.15439)"
         id="g554"><path
           id="path556"
           style="fill:#d9d6c8;fill-opacity:1;fill-rule:nonzero;stroke:none"
           d="m 16299.7,4705.01 c 0,0 0,0.09 0,0.09 v -0.09 m 0.2,0.35 c 0,0.08 0,0.08 0.1,0.08 -0.1,0 -0.1,0 -0.1,-0.08" /></g><g
         transform="scale(1.15653)"
         id="g558"><path
           id="path560"
           style="fill:#d4e9fa;fill-opacity:1;fill-rule:nonzero;stroke:none"
           d="m 16163,4640.96 c -1.8,0 -3.5,0 -5.3,0.09 l -164.1,6.57 c -0.2,0.34 -0.4,0.52 -0.4,0.69 -0.3,1.73 3.3,4.76 3.3,4.76 8.4,4.49 8.7,17.46 6.1,24.03 -2.7,6.49 -13.3,14.36 -18.6,15.05 -5.4,0.6 -6.3,3.03 -6.3,3.03 0.7,5.1 -3.7,14.44 -9.6,21.7 l 17,69 c 6.6,27.06 -9.9,54.3 -36.9,60.96 -4.1,1.03 -8.1,1.46 -12.1,1.46 -22.7,0 -43.3,-15.3 -48.9,-38.3 l -26.5,-107.65 c -17.6,-3.28 -43.8,-7.52 -49.7,-10.29 -6.7,-3.2 -19.9,-21.87 -32.2,-35.79 l -721.4,29.05 c -16.4,31.21 -33.6,59.83 -49.7,84.65 l 103.6,157.45 -72.4,6.14 -70.3,-106.87 c -14.2,19.37 -24.6,32.08 -28.2,36.49 -0.5,0.6 -0.9,1.21 -1.4,1.73 v 0 0 c -3.1,3.37 -9.4,6.74 -17.9,10.11 l 42.7,65.03 1297.8,-111.11 c 38.4,-56.12 29.3,-100.47 8.2,-132.21 -0.1,0 -0.1,0 -0.1,-0.08 -0.1,-0.09 -0.1,-0.18 -0.1,-0.26 0,0 0,-0.09 -0.1,-0.09 -0.1,-0.09 -0.1,-0.26 -0.2,-0.35 v 0 c -24,-35.45 -64.4,-54.99 -106.3,-54.99" /></g><g
         transform="scale(1.06836)"
         id="g562"><path
           id="path564"
           style="fill:#859dbc;fill-opacity:1;fill-rule:nonzero;stroke:none"
           d="m 16300,5071.97 -44.1,1.78 c -8.3,22.46 -16.9,44.83 -25.4,65.99 l 15.7,23.87 c 17.4,-26.87 36,-57.85 53.8,-91.64 v 0 m -101.7,144.61 c -10.4,23.31 -19.2,40.53 -24.9,47.93 3.9,-4.78 15.1,-18.53 30.5,-39.5 l -5.6,-8.43" /></g><g
         transform="scale(1.06547)"
         id="g566"><path
           id="path568"
           style="fill:#8ba6cc;fill-opacity:1;fill-rule:nonzero;stroke:none"
           d="m 16300,5087.51 -265.7,10.6 v 0 l 33.9,-1.31 40.6,61.85 c 9.8,-2.44 19.6,-3.75 29.5,-3.75 6.1,0 12.2,0.47 18.3,1.5 15.9,2.81 9.2,37.45 -1.1,73.21 l 40.8,62.04 c 9.2,-3.67 16,-7.33 19.4,-10.99 v 0 0 c 0.5,-0.56 1,-1.22 1.5,-1.88 5.7,-7.41 14.6,-24.68 25.1,-48.05 l -90.4,-137.31 80.9,-3.28 41.8,63.54 c 8.4,-21.21 17,-43.64 25.4,-66.17" /></g><g
         transform="scale(1.05714)"
         id="g570"><path
           id="path572"
           style="fill:#d9c6cf;fill-opacity:1;fill-rule:nonzero;stroke:none"
           d="m 16265.5,5195.52 c -10,0 -19.9,1.33 -29.7,3.79 l 47,71.51 c 10.4,-36.04 17.2,-70.95 1.1,-73.79 -6.1,-1.03 -12.3,-1.51 -18.4,-1.51" /></g><g
         transform="scale(1.04464)"
         id="g574"><path
           id="path576"
           style="fill:#d4e9fa;fill-opacity:1;fill-rule:nonzero;stroke:none"
           d="m 15734.6,5231.57 c -64.6,22.5 -110.8,85.39 -110.8,159 v 159.3 l 225.6,-19.34 c 0.1,-1.53 0.1,-2.3 0.1,-2.49 l -20,-131.91 c -4.1,-1.25 -8.2,-2.97 -12.1,-4.98 -15.5,-5.65 -29.7,-13.59 -42.4,-24.03 -19.8,-16.37 -29.4,-54.94 -31.3,-106.45 -3.2,-9.57 -6.3,-19.33 -9.1,-29.1 m 355.7,184.47 c -4.2,19.33 -8.8,42.5 -12.4,66.63 v 0 c -1.4,9.47 -2.8,19.04 -3.9,28.62 l 226,-19.34 c -6.2,-20.87 -12.4,-38.2 -17.8,-48.63 -3.7,0.19 -11.7,0.48 -22.7,0.48 -37.5,0 -110.4,-3.54 -169.2,-27.76" /></g><g
         transform="scale(1.04394)"
         id="g578"><path
           id="path580"
           style="fill:#8ba6cc;fill-opacity:1;fill-rule:nonzero;stroke:none"
           d="m 16250.2,5313.6 c -45.2,30.36 -93,51.05 -139.9,65.04 -2.2,9 -5.6,23.47 -9.4,41 59,24.23 131.9,27.78 169.4,27.78 11,0 19,-0.29 22.7,-0.48 -0.1,-0.1 -0.1,-0.19 -0.1,-0.29 -7,-13.12 -3.7,-34.2 7.1,-57.38 l -49.8,-75.67" /></g><g
         transform="scale(1.05204)"
         id="g582"><path
           id="path584"
           style="fill:#d9c6cf;fill-opacity:1;fill-rule:nonzero;stroke:none"
           d="m 16174.5,5347.79 c -10.7,23 -13.9,43.91 -7,56.93 0,0.1 0,0.19 0.1,0.29 5.4,10.36 11.5,27.56 17.7,48.29 l 114.7,-9.8 -59.2,5.04 -66.3,-100.75" /></g><g
         transform="scale(1.0318)"
         id="g586"><path
           id="path588"
           style="fill:#d9c6cf;fill-opacity:1;fill-rule:nonzero;stroke:none"
           d="m 16300,5441.96 c -71.4,21.32 -140.4,27.04 -194.1,27.04 -5.8,0 -11.6,0 -17,-0.2 -3.2,0.2 -6.4,0.2 -9.5,0.2 -10.6,0 -21,-0.68 -31.1,-2.23 -2.4,-0.19 -4.7,-0.39 -7,-0.58 -5.1,-0.39 -10,-1.46 -14.8,-2.91 l 20.3,133.55 v 0 l 0.7,2.43 97,-8.34 c 41.9,-24.32 89.9,-38.47 133.5,-40.02 3.7,-24.43 8.3,-47.88 12.5,-67.46 3.8,-17.74 7.3,-32.37 9.5,-41.48" /></g><g
         transform="scale(1.03041)"
         id="g590"><path
           id="path592"
           style="fill:#d8b3b9;fill-opacity:1;fill-rule:nonzero;stroke:none"
           d="m 16300,5558.4 v 0 c -43.7,1.55 -91.7,15.72 -133.6,40.08 l 129.6,-11.06 c 1.2,-9.71 2.5,-19.41 4,-29.02" /></g><g
         transform="scale(1.01582)"
         id="g594"><path
           id="path596"
           style="fill:#7e9bba;fill-opacity:1;fill-rule:nonzero;stroke:none"
           d="m 16299.2,5684.89 v 0 c 0,0.19 0,0.98 -0.1,2.56 l 0.9,-0.1 -0.8,-2.46" /></g><g
         transform="scale(1.0481)"
         id="g598"><path
           id="path600"
           style="fill:#8ebec7;fill-opacity:1;fill-rule:nonzero;stroke:none"
           d="m 16300,5182.59 -193.4,7.83 c -3.4,9.73 -7,18.51 -10.4,26.14 -43.1,94.93 -157.5,163.15 -257.6,167.16 5.3,0.19 11,0.19 16.7,0.19 52.9,0 120.8,-5.63 191.1,-26.62 46.7,-13.93 94.3,-34.54 139.3,-64.78 l -67.5,-102.57 181.8,-7.35 v 0 m -608.6,28.91 c -3,0.86 -5.9,1.72 -8.8,2.77 v 0 c 2.8,9.73 5.8,19.46 9.1,29.01 -0.4,-10.12 -0.5,-20.71 -0.3,-31.78 m 73.7,161.82 c 3.8,2.01 7.9,3.72 12.1,4.96 4.7,1.43 9.5,2.48 14.5,2.86 2.2,0.19 4.5,0.39 6.9,0.58 -11.6,-1.72 -22.8,-4.49 -33.5,-8.4" /></g><g
         transform="scale(1.13466)"
         id="g602"><path
           id="path604"
           style="fill:#818fa0;fill-opacity:1;fill-rule:nonzero;stroke:none"
           d="m 16166.4,4792.99 27,109.73 c 5.8,23.44 26.8,39.04 49.8,39.04 4.2,0 8.2,-0.44 12.4,-1.5 27.6,-6.78 44.4,-34.55 37.6,-62.13 l -17.3,-70.33 c -4.6,5.73 -10.2,10.22 -14.9,10.4 -0.1,0 -0.3,0 -0.4,0 -5.7,0 -18.8,-4.94 -31.1,-9.96 -12.3,-4.93 -23.8,-9.96 -26.4,-9.96 0,0 0,0 0,0 -2.3,0.09 -5.7,0.35 -9.1,0.35 -4,0 -8.1,-0.35 -11.3,-1.93 -1.9,-0.89 -8.2,-2.21 -16.3,-3.71" /></g><g
         transform="scale(1.13561)"
         id="g606"><path
           id="path608"
           style="fill:#d9c6cf;fill-opacity:1;fill-rule:nonzero;stroke:none"
           d="m 16288.2,4733.24 -218.7,8.8 v 0 c 12.5,14.18 25.9,33.2 32.8,36.46 6,2.82 32.7,7.13 50.6,10.48 8.1,1.5 14.3,2.82 16.2,3.7 3.2,1.58 7.4,1.94 11.3,1.94 3.4,0 6.8,-0.27 9.1,-0.36 0.1,0 0.1,0 0.1,0 2.5,0 14.1,5.02 26.3,9.95 12.3,5.02 25.4,9.95 31.1,9.95 0.1,0 0.3,0 0.3,0 4.8,-0.17 10.3,-4.66 14.9,-10.39 6.1,-7.39 10.6,-16.9 9.9,-22.1 0,0 0.9,-2.47 6.3,-3.08 5.5,-0.71 16.2,-8.72 19,-15.33 2.6,-6.69 2.3,-19.89 -6.2,-24.47 0,0 -3.7,-3.08 -3.4,-4.85 0,-0.17 0.2,-0.35 0.4,-0.7 v 0" /></g><g
         transform="scale(1.03567)"
         id="g610"><path
           id="path612"
           style="fill:#96d1d7;fill-opacity:1;fill-rule:nonzero;stroke:none"
           d="m 16300,5252.74 -382.9,15.35 c -12.9,0.58 -25.4,2.61 -37.3,5.99 -0.2,11.2 -0.1,21.92 0.3,32.15 1.9,51.95 11.6,90.86 31.6,107.37 12.7,10.53 27.1,18.54 42.7,24.24 10.8,3.96 22.1,6.76 33.9,8.5 10.1,1.54 20.5,2.22 31,2.22 3.1,0 6.3,0 9.5,-0.2 101.3,-4.05 217,-73.09 260.7,-169.16 3.5,-7.73 7,-16.61 10.5,-26.46" /></g><g
         transform="scale(1.1538)"
         id="g614"><path
           id="path616"
           style="fill:#d0e6fa;fill-opacity:1;fill-rule:nonzero;stroke:none"
           d="m 16300,4840.34 -1300.8,111.37 v 0 l -90.5,7.71 c 1.1,5.46 2.2,11.01 3.3,16.56 l 1380.3,-125.07 7.7,-10.57 m -1542.2,132 -204.6,17.5 c -0.8,6.33 -1.4,12.66 -2,18.81 l 211.5,-19.15 c -1.6,-5.9 -3.3,-11.7 -4.9,-17.16" /></g><g
         transform="scale(1.05555)"
         id="g618"><path
           id="path620"
           style="fill:#d4ccda;fill-opacity:1;fill-rule:nonzero;stroke:none"
           d="m 16296.4,5421.05 -50.6,4.36 -114.3,9.76 c 1.8,5.96 3.6,12.31 5.4,18.75 l 163.1,-14.78 c -1.2,-6.06 -2.4,-12.12 -3.6,-18.09" /></g><g
         transform="scale(1.01576)"
         id="g622"><path
           id="path624"
           style="fill:#d0e6fa;fill-opacity:1;fill-rule:nonzero;stroke:none"
           d="m 16300,5687.76 -232,19.89 v 23.52 l 228.8,-20.77 c 2.4,-10.83 3,-18.8 3.2,-22.64" /></g><g
         transform="scale(1.02196)"
         id="g626"><path
           id="path628"
           style="fill:#d4ccda;fill-opacity:1;fill-rule:nonzero;stroke:none"
           d="m 16300,5644.76 -98,8.41 7.5,21.53 54.1,-4.89 c 11.3,-9.2 23.6,-17.62 36.4,-25.05" /></g><g
         transform="scale(1.03015)"
         id="g630"><path
           id="path632"
           style="fill:#d3bdc8;fill-opacity:1;fill-rule:nonzero;stroke:none"
           d="m 16300,5588.78 -129.7,11.06 c -12.7,7.38 -24.8,15.73 -36.1,24.86 l 163.6,-14.86 c 0.6,-6.89 1.3,-13.97 2.2,-21.06" /></g><g
         transform="scale(1.01628)"
         id="g634"><path
           id="path636"
           style="fill:#8fabc9;fill-opacity:1;fill-rule:nonzero;stroke:none"
           d="m 16292.5,5684.74 -0.9,0.1 c -0.2,3.84 -0.8,11.8 -3.2,22.63 l 11.6,-1.08 -7.5,-21.65" /></g><g
         transform="scale(1.1538)"
         id="g638"><path
           id="path640"
           style="fill:#cae1f9;fill-opacity:1;fill-rule:nonzero;stroke:none"
           d="m 16300,4840.34 -1300.8,111.37 v 0 L 16300,4840.34 m -1542.2,132 -204.6,17.5 v 0 l 204.6,-17.5 v 0" /></g><g
         transform="scale(1.06172)"
         id="g642"><path
           id="path644"
           style="fill:#ddedfb;fill-opacity:1;fill-rule:nonzero;stroke:none"
           d="m 16253.5,5310.33 c -15.9,6.12 -38.7,12.15 -64.1,17.61 0,0.09 0.1,0.28 0.1,0.37 3.4,17.15 7.6,38.34 12.2,61.23 l 98.3,-8.39 -46.5,-70.82" /></g><g
         transform="scale(1.05869)"
         id="g646"><path
           id="path648"
           style="fill:#a2b8d6;fill-opacity:1;fill-rule:nonzero;stroke:none"
           d="m 16171.1,5129.44 -34.1,1.32 c -22.2,30.23 -46.6,55.92 -72.4,77.92 0.5,1.33 0.7,1.99 0.7,1.99 l -4.2,0.94 c -12.2,10.11 -24.6,19.37 -37.3,27.96 l 49.1,74.62 c 22.5,-48.74 78,-107.3 139.1,-122.51 l -40.9,-62.24 m 87.8,133.65 c -10.2,35.61 -24.1,72.26 -23.1,80.1 25.4,-5.48 48.3,-11.52 64.2,-17.66 l -41.1,-62.44" /></g><g
         transform="scale(1.05602)"
         id="g650"><path
           id="path652"
           style="fill:#e1d1d9;fill-opacity:1;fill-rule:nonzero;stroke:none"
           d="m 16252.9,5204.81 c -61.2,15.24 -116.8,73.95 -139.4,122.81 l 66,100.38 59,-5.02 50.6,-4.36 c -4.5,-23 -8.8,-44.31 -12.2,-61.55 0,-0.09 -0.1,-0.28 -0.1,-0.38 -0.9,-7.86 13,-44.6 23.2,-80.3 l -47.1,-71.58" /></g><g
         transform="scale(1.04345)"
         id="g654"><path
           id="path656"
           style="fill:#e0cad3;fill-opacity:1;fill-rule:nonzero;stroke:none"
           d="m 16299.3,5284.79 c -1.1,0.96 -2.4,1.92 -3.5,2.97 l 4.2,-0.96 c 0,0 -0.2,-0.67 -0.7,-2.01" /></g><g
         transform="scale(1.0481)"
         id="g658"><path
           id="path660"
           style="fill:#a5cbd2;fill-opacity:1;fill-rule:nonzero;stroke:none"
           d="m 16300,5182.59 -181.8,7.35 67.5,102.57 c 12.8,-8.69 25.4,-18.04 37.7,-28.24 1.1,-1.05 2.4,-2.01 3.5,-2.96 26.1,-22.23 50.7,-48.18 73.1,-78.72" /></g><g
         transform="scale(1.06172)"
         id="g662"><path
           id="path664"
           style="fill:#d9ebfb;fill-opacity:1;fill-rule:nonzero;stroke:none"
           d="m 16300,5381.15 -98.3,8.39 v 0 l 98.3,-8.39" /></g><g
         transform="scale(1.07218)"
         id="g666"><path
           id="path668"
           style="fill:#ddedfb;fill-opacity:1;fill-rule:nonzero;stroke:none"
           d="m 16188.3,5145.2 c -15.6,24.06 -30.2,44.86 -42.2,61.18 l 75.8,115.28 78.1,-6.62 -111.7,-169.84" /></g><g
         transform="scale(1.06483)"
         id="g670"><path
           id="path672"
           style="fill:#9db1c9;fill-opacity:1;fill-rule:nonzero;stroke:none"
           d="m 16284.3,5156.77 c -11.5,28.92 -22.6,55.59 -32.3,77.09 l 5.6,8.46 c 12.1,-16.44 26.7,-37.38 42.4,-61.61 l -15.7,-23.94" /></g><g
         transform="scale(1.06381)"
         id="g674"><path
           id="path676"
           style="fill:#a2b8d6;fill-opacity:1;fill-rule:nonzero;stroke:none"
           d="m 16258.2,5098.09 -81.1,3.29 90.6,137.53 c 9.6,-21.53 20.7,-48.23 32.3,-77.18 l -41.8,-63.64" /></g><path
         id="path678"
         style="fill:#f7cc7f;fill-opacity:1;fill-rule:nonzero;stroke:none"
         d="m 12953.7,5453.1 2839.4,-28.1 25.4,-899.9 c 0,0 -331.7,-482.5 -371.7,-477.4 -40,5 -888.1,141.4 -964.2,136.4 -76.2,-5.1 -740.9,321.2 -772.3,314.7 -31.4,-6.5 -238.5,104.6 -238.5,104.6 l -337.6,238.5 -334.7,344.5 154.2,266.7" /><path
         id="path680"
         style="fill:#eab054;fill-opacity:1;fill-rule:nonzero;stroke:none"
         d="m 13528.5,5169.6 h -630.6 c -15.5,0 -28.2,12.6 -28.2,28.2 v 54.4 c 0,15.6 12.7,28.2 28.2,28.2 h 630.6 c 15.5,0 28.2,-12.6 28.2,-28.2 v -54.4 c 0,-15.6 -12.7,-28.2 -28.2,-28.2" /><path
         id="path682"
         style="fill:#ffffff;fill-opacity:1;fill-rule:nonzero;stroke:none"
         d="m 13948.5,6105.8 -98.2,-19 c 0,0 9.4,-36.8 52.9,-29.8 53,8.6 45.3,48.8 45.3,48.8" /><path
         id="path684"
         style="fill:#1a1a1a;fill-opacity:1;fill-rule:nonzero;stroke:none"
         d="m 13644.2,6199.9 c 0,0 221.8,101.6 243.7,260.8 22,159.2 -182.3,7.1 -182.3,7.1 l -82.6,-79.2 21.2,-188.7" /><g
         transform="scale(1.01199)"
         id="g686"><path
           id="path688"
           style="fill:#f7cc7f;fill-opacity:1;fill-rule:nonzero;stroke:none"
           d="m 16207.6,5417.16 c 0,0 40.8,-28.06 92.4,-26.19 0,0 -68.7,-20.95 -70.7,-19.26 -1.9,1.68 -36.5,29.44 -36,30.03 l 14.3,15.42" /></g><g
         transform="scale(1.03642)"
         id="g690"><path
           id="path692"
           style="fill:#f7cc7f;fill-opacity:1;fill-rule:nonzero;stroke:none"
           d="m 16032.2,6281.16 267.8,-16.98 c 0,0 -43.9,72.65 -62.4,72.65 -18.6,0 -141.2,0 -141.2,0 l -64.2,-55.67" /></g><g
         transform="scale(2.00407)"
         id="g694"><path
           id="path696"
           style="fill:#183658;fill-opacity:1;fill-rule:nonzero;stroke:none"
           d="M 16243.3,1157 H 1308.54 c -31.31,0 -56.69,25.35 -56.69,56.68 0,31.29 25.38,56.69 56.69,56.69 H 16243.3 c 31.3,0 56.7,-25.4 56.7,-56.69 0,-31.33 -25.4,-56.68 -56.7,-56.68" /></g></g></g></svg>
