<?xml version="1.0" encoding="UTF-8" standalone="no"?>
<svg
   xmlns:dc="http://purl.org/dc/elements/1.1/"
   xmlns:cc="http://creativecommons.org/ns#"
   xmlns:rdf="http://www.w3.org/1999/02/22-rdf-syntax-ns#"
   xmlns:svg="http://www.w3.org/2000/svg"
   xmlns="http://www.w3.org/2000/svg"
   viewBox="0 0 4000 2666.6667"
   height="2666.6667"
   width="4000"
   xml:space="preserve"
   id="svg2"
   version="1.1"><metadata
     id="metadata8"><rdf:RDF><cc:Work
         rdf:about=""><dc:format>image/svg+xml</dc:format><dc:type
           rdf:resource="http://purl.org/dc/dcmitype/StillImage" /></cc:Work></rdf:RDF></metadata><defs
     id="defs6" /><g
     transform="matrix(1.3333333,0,0,-1.3333333,0,2666.6667)"
     id="g10"><g
       transform="scale(0.1)"
       id="g12"><g
         transform="scale(1.84049)"
         id="g14"><path
           id="path16"
           style="fill:transparent;fill-opacity:1;fill-rule:nonzero;stroke:none"
           d="M 16300,0 H 0 V 10866.7 H 16300 V 0" /></g><g
         transform="scale(1.73854)"
         id="g18"><path
           id="path20"
           style="fill:#ebf3fa;fill-opacity:1;fill-rule:nonzero;stroke:none"
           d="m 15246.5,1481.24 -9495.06,-2.93 -3949.17,-1.26 h -70.44 c -50.45,33.07 -98.77,74.25 -145.12,122.57 -28.18,58.67 -53.52,115.67 -76.14,171 -49.13,120.28 -85.63,232.67 -111.18,338.51 -97.09,402.4 -35.77,709.44 88.26,985.88 299.07,666.54 963.14,1155.22 652.24,2374.64 -128.98,505.81 -120.31,1000.45 -0.3,1470.05 283.39,1109.44 1187.99,2079.01 2365.83,2726.43 2317.26,1274.17 5692.38,1301.47 7475.88,-1305.65 1283.4,-1876.14 2232,-865.84 3572.8,-2763.94 361,-511.07 531.9,-1012.87 583.1,-1480.56 162.8,-1490.16 -890.7,-2634.74 -890.7,-2634.74" /></g><g
         transform="scale(1.71851)"
         id="g22"><path
           id="path24"
           style="fill:#c6d5ff;fill-opacity:1;fill-rule:nonzero;stroke:none"
           d="M 15419.4,1469.65 H 1722.72 c -51.03,33.46 -70.62,99.73 -117.52,148.61 v 0 0 c 46.9,-48.88 95.78,-90.54 146.81,-124 h 71.27 l 3995.19,1.28 9605.73,2.97 c 0,0 694.9,755.07 875.8,1839.5 -181.4,-1093.1 -880.6,-1868.36 -880.6,-1868.36 M 1521.58,1807.56 c -45.95,114.34 -80.49,221.7 -105.12,323.07 24.64,-101.37 59.2,-208.73 105.12,-323.07 m -105.35,324 c -0.05,0.17 -0.1,0.4 -0.15,0.58 0.05,-0.18 0.1,-0.41 0.15,-0.58" /></g><g
         transform="scale(1.72451)"
         id="g26"><path
           id="path28"
           style="fill:#c0d1fd;fill-opacity:1;fill-rule:nonzero;stroke:none"
           d="m 1816.93,1489.06 h -71.01 c -50.86,33.35 -99.57,74.86 -146.31,123.57 v 0 c -31.17,64.95 -58.87,127.81 -83.32,188.64 -45.76,113.94 -80.2,220.93 -104.76,321.94 -0.08,0.29 -0.15,0.64 -0.23,0.93 -0.05,0.17 -0.1,0.41 -0.14,0.58 -0.13,0.52 -0.26,1.04 -0.39,1.57 121.32,-25.63 259.7,-36.71 410.23,-36.71 481.04,0 1086.44,113.25 1657.9,226.5 571.42,113.31 1108.95,226.56 1454.18,226.56 69.45,0 131.08,-4.59 183.68,-14.67 67.5,-12.94 135.49,-18.91 203.63,-18.91 769.4,0 1565.74,763.29 2073.83,909.36 71.44,20.59 145.09,29.46 219.89,29.46 235.95,0 483.67,-88.2 712.43,-176.34 228.82,-88.2 438.62,-176.4 598.67,-176.4 22.03,0 43.08,1.68 63.14,5.22 352.8,62.8 1173.65,1505.47 1373.35,1505.47 2.9,0 5.6,-0.29 8.2,-0.93 184.4,-42.38 488,-466.33 683.2,-484.42 0.8,-0.12 1.8,-0.18 2.7,-0.18 139.3,0 584.2,938.94 942.8,1616.46 v 0 c 33.3,-10.49 71.7,-19.08 107,-19.08 55.8,0 104,21.34 113.1,90.27 4.4,33.02 27.3,46.56 63.3,46.56 142.9,0 491,-214.12 690.3,-269.15 26.9,-7.43 49.1,-10.79 67.6,-10.79 153.2,0 41.4,231.34 46.3,302.29 0.5,8.22 8,11.91 20.8,11.91 62.9,0 256.7,-88.88 412.9,-165.92 v 0 0 c -32.1,30.67 -64.8,61.75 -97.7,92.86 32.9,-31.11 65.6,-62.19 97.7,-92.86 h 0.1 c 269.6,-257.58 501.6,-489.48 533.2,-501.02 3.3,-1.16 6.7,-1.74 10.3,-1.74 34.7,0 84.1,53.06 141.5,111.98 l 0.5,0.52 c 0,0.06 0.1,0.06 0.1,0.12 3.8,3.24 24.3,19.54 60.9,19.54 20.3,0 45.6,-5.05 75.7,-20.12 71.8,-35.96 161.7,-58.98 222.9,-58.98 15.9,0 29.8,1.51 40.9,4.81 1.3,0.41 3,0.59 4.8,0.59 74.7,0 579,-299.22 586,-303.4 v 0 -0.05 h 0.1 c 376.2,-292.09 872.9,-677.41 1046.4,-809.22 8.1,-6.2 16.6,-11.65 25.2,-16.41 31.5,-288.2 17.7,-564.51 -25.2,-823.07 -180.2,-1080.66 -872.8,-1833.11 -872.8,-1833.11 l -9572.27,-2.95 -3981.3,-1.28 M 15196.8,4975.21 h -0.1 v 0 h 0.1 v 0 m -19.7,15.31 c -11.6,8.99 -23.1,17.92 -34.4,26.68 2.1,-1.57 4.2,-3.19 6.2,-4.82 7.9,-6.09 15.8,-12.29 23.8,-18.44 1.5,-1.16 2.9,-2.32 4.4,-3.42 m -44.8,34.79 c -2.3,1.74 -4.5,3.48 -6.7,5.17 v 0 c 2.2,-1.69 4.4,-3.43 6.7,-5.17 m -19.9,15.43 c -3.3,2.55 -6.5,5.04 -9.7,7.59 v 0 c 3.2,-2.55 6.4,-5.04 9.7,-7.59 m -41.4,32.12 c -0.6,0.53 -1.3,0.99 -1.9,1.51 h 0.1 c 0.6,-0.52 1.2,-0.98 1.8,-1.51 m -17.7,13.8 c -20.6,16.01 -40.6,31.49 -59.7,46.39 0.5,-0.4 1,-0.81 1.6,-1.21 16.8,-13.11 34.2,-26.56 52.2,-40.54 1.9,-1.56 3.9,-3.07 5.9,-4.64 m -79.8,61.99 c -1.5,1.22 -3,2.38 -4.6,3.6 1.6,-1.22 3.1,-2.38 4.6,-3.6 m -50.3,39.09 c -2,1.56 -3.9,3.07 -5.9,4.58 0.7,-0.52 1.4,-0.99 2,-1.51 1.3,-1.04 2.6,-2.03 3.9,-3.07 m -18.7,14.55 c -6.3,4.93 -12.6,9.74 -18.6,14.44 5.3,-4.06 10.6,-8.23 16.1,-12.47 0.8,-0.64 1.7,-1.33 2.5,-1.97 m -41,31.9 c -0.3,0.23 -0.7,0.58 -1.1,0.87 0.4,-0.29 0.7,-0.59 1.1,-0.87 m -4.2,3.24 c -1.6,1.22 -3.1,2.44 -4.7,3.66 1.6,-1.22 3.1,-2.44 4.7,-3.66 m -7.1,5.51 c -4.7,3.65 -9.2,7.19 -13.7,10.61 l 0.4,-0.23 1.1,-0.81 c 1,-0.7 2,-1.51 3,-2.32 3,-2.38 6.1,-4.81 9.2,-7.25 m -28.9,22.44 c -1.1,0.93 -2.3,1.86 -3.5,2.79 l 0.2,-0.12 c 1.1,-0.87 2.2,-1.74 3.3,-2.67 m -14.4,11.25 c -8,6.21 -15.4,11.95 -22.1,17.22 6.4,-4.98 13.4,-10.43 20.9,-16.29 0.5,-0.29 0.8,-0.64 1.2,-0.93 m -58.9,45.87 c -0.1,0 -0.2,0.06 -0.2,0.12 v 0 l 0.2,-0.12 m -4.1,3.13 c -2.9,2.26 -5.1,4 -6.7,5.28 1.6,-1.22 3.8,-3.02 6.7,-5.22 v -0.06 m -13.7,11.25 c -0.8,0.64 -1.6,1.39 -2.5,2.2 0.8,-0.63 1.4,-1.21 2,-1.79 l 0.5,-0.35 v -0.06 m -9.6,8.47 c -0.6,0.52 -1.2,0.98 -1.8,1.5 0.6,-0.52 1.2,-0.98 1.8,-1.5 m -15.3,12.87 c -2.8,2.32 -5.8,4.76 -9,7.31 3.2,-2.55 6.2,-4.99 9,-7.31 m -39.6,30.79 c -2.7,1.91 -5.3,3.89 -8,5.8 1.4,-0.99 2.8,-1.97 4.2,-2.96 1.3,-0.93 2.5,-1.91 3.8,-2.84 m -385.4,17.98 c 1.5,1.39 3.1,2.72 4.7,4.06 -1.6,-1.34 -3.2,-2.73 -4.7,-4.06 m 359.3,0.4 c -0.5,0.29 -0.9,0.58 -1.4,0.93 0.5,-0.35 0.9,-0.64 1.4,-0.93 m -3.9,2.61 c -2.5,1.63 -5,3.31 -7.6,4.93 1,-0.58 1.9,-1.16 2.8,-1.74 1.6,-1.04 3.2,-2.09 4.8,-3.19 m -341.8,8.58 c 3,2.5 5.9,4.94 8.9,7.31 -3,-2.43 -5.9,-4.81 -8.9,-7.31 m 27.5,21.46 c 0.8,0.64 1.7,1.22 2.5,1.8 -0.8,-0.58 -1.7,-1.16 -2.5,-1.8 m 242.9,11.37 c -6.9,3.42 -13.9,6.61 -20.9,9.68 2.3,-1.04 4.7,-2.03 7,-3.07 3.2,-1.4 6.2,-2.9 9.4,-4.35 1.5,-0.76 3,-1.51 4.5,-2.26 m -23.6,10.78 c -1.3,0.52 -2.6,1.1 -3.8,1.63 1.2,-0.53 2.5,-1.05 3.8,-1.63 m -19.7,7.72 c -1.4,0.46 -2.8,0.98 -4.1,1.45 1.3,-0.47 2.7,-0.93 4.1,-1.45 m -149.6,0.52 c 4.4,2.08 8.8,4.06 13.2,5.8 1.3,0.52 2.4,0.98 3.6,1.39 -1.2,-0.47 -2.4,-0.93 -3.6,-1.39 -4.4,-1.8 -8.8,-3.72 -13.2,-5.8 m 140.8,2.49 c -3.4,1.1 -6.8,2.15 -10.1,3.13 3,-0.87 6,-1.8 9,-2.72 0.4,-0.12 0.7,-0.24 1.1,-0.41 m -2478.5,333.54 c 5.3,10.04 10.6,19.99 16,29.86 -5.4,-9.88 -10.7,-19.83 -16,-29.86 m 1361.5,32.79 c -3.7,3.49 -7.4,6.96 -11.1,10.46 3.7,-3.49 7.4,-6.97 11.1,-10.46 m -51.7,48.48 c -18.1,16.9 -36.2,33.75 -54.3,50.47 18.1,-16.71 36.2,-33.56 54.3,-50.47 m -1249.2,30.73 c 5.3,9.84 10.7,19.57 16,29.23 6.2,11.03 12.2,21.96 18.2,32.74 -11.2,-20.18 -22.6,-40.87 -34.2,-61.97 m 1126.2,82.79 c -23.8,21.72 -47.6,43.1 -71,64.02 22,-19.62 44.3,-39.64 66.6,-59.96 1.4,-1.35 2.9,-2.7 4.4,-4.06 m -1038.3,73.56 c 6.8,11.78 13.5,23.34 20.2,34.71 0.3,0.48 0.6,0.95 0.9,1.44 -6.9,-11.79 -14,-23.85 -21.1,-36.15 m 911.6,39.78 c -2,1.84 -4.2,3.69 -6.3,5.52 2.1,-1.82 4.3,-3.67 6.3,-5.52 m -885.1,5.56 c 0.1,0.15 0.3,0.31 0.3,0.46 0,-0.15 -0.2,-0.31 -0.3,-0.46 m 0.3,0.48 c 0.6,1.1 1.3,2.15 1.9,3.19 -0.6,-1.06 -1.3,-2.12 -1.9,-3.19 m 10.2,17.01 c 0,0.04 0,0.09 0.1,0.14 0,0.1 0.1,0.2 0.1,0.3 -0.1,-0.15 -0.1,-0.29 -0.2,-0.44 m 843,4.51 c -6.1,5.3 -12.1,10.51 -18.2,15.7 3.4,-2.86 6.7,-5.74 10.1,-8.66 2.7,-2.34 5.4,-4.68 8.1,-7.04 m -823.9,27.03 c 0.3,0.49 0.6,0.99 0.9,1.49 7.9,12.88 15.7,25.33 23.3,37.32 1.6,2.61 3.2,5.18 4.9,7.74 -9.5,-14.86 -19.2,-30.38 -29.1,-46.55 m 792.2,0.29 c -14.6,12.43 -29,24.59 -43.1,36.41 9.3,-7.78 18.8,-15.71 28.3,-23.8 4.8,-4.16 9.8,-8.37 14.8,-12.61 m -750.5,65.76 c 3.1,4.79 6.2,9.5 9.3,14.12 -3.1,-4.62 -6.2,-9.33 -9.3,-14.12 m 660.6,9.25 c -2,1.57 -3.9,3.11 -5.8,4.67 1.3,-1.01 2.5,-2.03 3.8,-3.04 0.6,-0.54 1.3,-1.09 2,-1.63 m -638.6,23.77 c 0.2,0.5 0.5,0.95 0.9,1.41 0.6,0.95 1.3,1.91 2,2.87 22.1,32.38 42.7,59.97 61.5,82.2 1.6,1.84 3.1,3.61 4.5,5.3 1.2,1.4 2.5,2.79 3.7,4.15 -21.8,-24.58 -46.1,-56.96 -72.6,-95.93 m 594.5,11.41 c -1.7,1.28 -3.2,2.53 -4.9,3.79 1,-0.79 2.1,-1.59 3.1,-2.39 0.6,-0.46 1.2,-0.93 1.8,-1.4 m -34.7,26.75 c -2.9,2.13 -5.6,4.23 -8.4,6.31 2.8,-2.07 5.5,-4.18 8.4,-6.31 m -9.6,7.17 c -2.7,2.06 -5.4,4.08 -8.2,6.09 2.8,-2 5.5,-4.03 8.2,-6.09 m -15.8,11.76 c -0.4,0.3 -0.9,0.62 -1.3,0.92 0.4,-0.3 0.8,-0.61 1.3,-0.92 m -25.2,18.13 c -21.2,14.91 -41,28.18 -59.6,39.62 18.6,-11.39 38.4,-24.68 59.6,-39.62 m -434.9,22.58 c 0.5,0.6 1.1,1.19 1.6,1.77 -0.5,-0.58 -1.1,-1.18 -1.6,-1.77 m 23.9,24.54 c 3.2,3.08 6.5,6.04 9.7,8.87 -3.2,-2.85 -6.5,-5.8 -9.7,-8.87 m 333.7,3.08 c -2.8,1.62 -5.6,3.18 -8.3,4.7 0,0 0,0.01 0,0.02 l 0.1,-0.02 c 2.6,-1.5 5.4,-3.07 8.2,-4.7 m -9.5,5.87 c -3.6,3.38 -15,13.75 -32.7,25.23 1.3,-0.8 2.5,-1.64 3.8,-2.49 15.5,-10.44 25.6,-19.57 28.9,-22.73 v -0.01 m -310.5,3.35 c 0.7,0.63 1.4,1.23 2.1,1.81 -0.7,-0.59 -1.4,-1.2 -2.1,-1.81 m 28.7,21.91 c 1.1,0.75 2.2,1.48 3.3,2.15 -1.1,-0.71 -2.2,-1.42 -3.3,-2.15 m 239.1,6.2 c -4.6,2.73 -9.5,5.46 -14.8,8.13 0.9,-0.45 1.8,-0.91 2.8,-1.39 4.2,-2.23 8.2,-4.49 12,-6.74 m -228,0.9 c 1.1,0.64 2.2,1.26 3.2,1.87 -1,-0.62 -2.1,-1.24 -3.2,-1.87 m 12.8,7.24 c 1.1,0.59 2.2,1.15 3.3,1.7 -1.1,-0.55 -2.2,-1.13 -3.3,-1.7 m 15.7,7.61 c 0.6,0.24 1.1,0.48 1.6,0.7 1.7,0.73 3.4,1.42 5,2.07 -2.1,-0.87 -4.3,-1.81 -6.6,-2.77 m 152.1,6.19 c -3.8,1.33 -7.8,2.58 -12,3.73 l 0.5,-0.09 c 4,-1.12 7.8,-2.34 11.5,-3.64 m -128.9,2.5 c 0.6,0.21 1.3,0.4 1.9,0.59 -0.6,-0.19 -1.3,-0.39 -1.9,-0.59 m 9.8,2.8 c 0.3,0.09 0.6,0.17 0.9,0.25 l 0.5,0.11 c -0.4,-0.12 -0.9,-0.24 -1.4,-0.36 m 100.1,0.3 c -0.1,0.01 -0.1,0.02 -0.1,0.03 v 0 l 0.1,-0.03 m -1.1,0.25 c -0.7,0.19 -1.5,0.36 -2.2,0.54 0.7,-0.14 1.4,-0.3 2,-0.47 l 0.2,-0.07 m -32.1,5.21 c -0.2,0.02 -0.5,0.04 -0.7,0.06 0.2,-0.02 0.5,-0.04 0.7,-0.06 m -12.6,0.65 c -0.4,0.01 -0.8,0.01 -1.2,0.02 0.4,-0.01 0.8,-0.01 1.2,-0.02" /></g><g
         transform="scale(1.43038)"
         id="g30"><path
           id="path32"
           style="fill:#f4f9fd;fill-opacity:1;fill-rule:nonzero;stroke:none"
           d="m 15721.3,6720.87 c -22.3,0 -49.1,4.05 -81.5,13 -240.3,66.35 -660,324.5 -832.3,324.5 -43.3,0 -71,-16.33 -76.3,-56.13 -10.9,-83.1 -69.1,-108.83 -136.3,-108.83 -42.6,0 -88.9,10.35 -129,23 -0.1,0 -0.1,0 -0.1,0 15,28.46 30,56.42 44.7,84.04 6.5,12.08 12.9,24.08 19.3,35.99 18.2,33.77 36.2,66.83 53.8,99.03 14,25.44 27.8,50.38 41.3,74.71 22.1,39.56 43.7,77.55 64.7,113.79 8.6,14.83 17.1,29.38 25.5,43.58 2.2,3.72 4.3,7.41 6.5,11.09 0.1,0.18 0.3,0.37 0.4,0.55 0,0.02 0,0.02 0,0.03 0.7,1.29 1.5,2.57 2.3,3.84 3.3,5.6 6.6,11.17 9.9,16.66 0.1,0.19 0.2,0.35 0.3,0.54 7.7,12.77 15.3,25.3 22.8,37.48 11.9,19.51 23.6,38.22 35.1,56.13 5.1,8.01 10.1,15.84 15.1,23.51 3.8,5.77 7.5,11.46 11.2,17.03 5.2,7.78 10.3,15.38 15.3,22.78 32,46.98 61.3,86.02 87.6,115.65 0.7,0.76 1.4,1.51 2.1,2.27 0.6,0.7 1.3,1.42 1.9,2.12 2.5,2.78 5,5.48 7.5,8.08 6.4,6.84 12.9,13.29 19.4,19.37 3.9,3.7 7.8,7.27 11.6,10.7 1.6,1.4 3.2,2.78 4.9,4.14 0.8,0.73 1.6,1.46 2.5,2.18 10.8,9.05 21.5,17.1 32.1,24.23 1.3,0.88 2.6,1.74 3.9,2.59 3.2,2.08 6.3,4.05 9.5,5.97 1.3,0.76 2.6,1.51 3.8,2.25 3.9,2.27 7.8,4.43 11.6,6.48 1.3,0.69 2.6,1.38 3.9,2.04 5.1,2.58 10.1,4.95 15.1,7.13 2.6,1.17 5.3,2.29 7.9,3.35 6.8,2.7 13.4,5.07 20,7.13 0.7,0.24 1.5,0.48 2.3,0.71 3.2,0.96 6.3,1.85 9.6,2.67 0.5,0.14 1.1,0.29 1.6,0.43 20.5,5.14 40.2,7.34 59,7.34 1.1,0 2.2,-0.01 3.3,-0.02 0.5,-0.01 0.9,-0.02 1.4,-0.02 4.9,-0.1 9.7,-0.34 14.4,-0.72 0.3,-0.02 0.6,-0.04 0.9,-0.07 12.5,-1.03 24.5,-2.99 36,-5.63 0.9,-0.22 1.8,-0.43 2.7,-0.65 0.4,-0.09 0.8,-0.18 1.1,-0.27 0.1,-0.01 0.1,-0.02 0.2,-0.03 2.8,-0.71 5.7,-1.46 8.5,-2.25 5,-1.39 9.8,-2.9 14.5,-4.5 14.2,-4.87 27.4,-10.61 39.2,-16.66 6.3,-3.21 12.3,-6.51 17.8,-9.8 4.3,-2.52 8.3,-5.03 12.1,-7.5 21.3,-13.85 35.1,-26.34 39.4,-30.43 0.9,-0.78 1.4,-1.25 1.5,-1.38 0,-0.01 0,-0.02 0,-0.02 3.3,-1.83 6.6,-3.71 10,-5.67 6.9,-4.01 14,-8.27 21.3,-12.76 22.4,-13.79 46.4,-29.79 71.8,-47.76 9.5,-6.65 19.1,-13.57 28.9,-20.75 0.5,-0.37 1,-0.75 1.5,-1.11 3.1,-2.25 6.2,-4.54 9.3,-6.84 3.2,-2.42 6.5,-4.86 9.8,-7.34 0.5,-0.34 0.9,-0.69 1.4,-1.03 3.4,-2.51 6.7,-5.04 10.2,-7.61 11.7,-8.9 23.7,-18.15 36,-27.68 1.9,-1.52 3.8,-3.04 5.8,-4.57 15.1,-11.81 30.5,-24.12 46.2,-36.79 2.3,-1.88 4.6,-3.74 7,-5.62 18.3,-14.98 37.2,-30.52 56.4,-46.54 17,-14.25 34.4,-28.92 51.9,-43.91 5.5,-4.63 10.9,-9.3 16.4,-14 7.3,-6.26 14.5,-12.54 21.9,-18.93 10.1,-8.75 20.3,-17.62 30.5,-26.57 2.5,-2.21 5.1,-4.44 7.6,-6.66 22.1,-19.41 44.6,-39.26 67.2,-59.45 28.2,-25.24 56.8,-51.01 85.5,-77.19 27.5,-25.03 55.1,-50.39 82.9,-76.02 21.8,-20.16 43.6,-40.47 65.4,-60.84 16.4,-15.24 32.7,-30.55 48.9,-45.85 4.5,-4.21 9,-8.4 13.5,-12.61 10,-9.45 20,-18.92 30.1,-28.38 39.7,-37.5 79.1,-74.97 117.8,-111.96 -188.3,92.89 -421.9,200.04 -497.8,200.04 -15.5,0 -24.4,-4.44 -25.1,-14.36 -5.8,-85.54 128.9,-364.44 -55.8,-364.44" /></g><g
         transform="scale(1.6078)"
         id="g34"><path
           id="path36"
           style="fill:#f4f9fd;fill-opacity:1;fill-rule:nonzero;stroke:none"
           d="m 16300,5336.24 c 0,0 0,0.07 -0.1,0.07 -7.5,4.47 -548.4,325.41 -628.5,325.41 -2,0 -3.7,-0.19 -5.1,-0.62 -12,-3.55 -26.9,-5.16 -43.9,-5.16 -65.7,0 -162.1,24.69 -239.1,63.25 -32.3,16.17 -59.4,21.58 -81.2,21.58 -39.2,0 -61.3,-17.48 -65.3,-20.96 0,-0.06 -0.1,-0.06 -0.1,-0.12 26.1,26.8 53.7,54.61 82.3,79.8 1.7,1.43 3.4,2.92 5.1,4.35 3.1,2.74 6.3,5.41 9.5,8.08 3.2,2.68 6.4,5.23 9.6,7.84 6.6,5.29 13.3,10.33 20,15.18 0.9,0.68 1.7,1.3 2.7,1.93 16.7,12 33.7,22.45 50.9,30.66 4.7,2.24 9.5,4.29 14.2,6.22 1.2,0.5 2.5,1 3.8,1.49 17.1,6.28 35.2,9.08 53.8,9.08 22.3,0 45.3,-4.04 68.4,-10.76 3.5,-1.05 7.1,-2.17 10.8,-3.36 1.6,-0.49 3.3,-1.12 5,-1.67 1.5,-0.5 3,-1.06 4.5,-1.56 5.6,-2.05 11.3,-4.23 17,-6.53 1.3,-0.56 2.7,-1.18 4.1,-1.74 1,-0.38 1.9,-0.81 2.9,-1.18 7.5,-3.3 15,-6.72 22.4,-10.39 24.1,-11.76 47.2,-25.31 68.4,-39.12 2.8,-1.74 5.5,-3.55 8.1,-5.29 1,-0.62 1.8,-1.24 2.8,-1.8 0.5,-0.38 0.9,-0.69 1.4,-1 6.7,-4.54 13.2,-9.02 19.4,-13.5 2.9,-2.05 5.8,-4.16 8.6,-6.22 12.2,-8.89 23.3,-17.47 32.9,-25.18 3.4,-2.74 6.6,-5.35 9.6,-7.84 5.5,-4.54 10.4,-8.58 14.5,-12.19 0.6,-0.56 1.3,-1.06 1.9,-1.62 3,-2.55 5.5,-4.79 7.6,-6.72 1,-0.87 1.9,-1.67 2.7,-2.36 2.9,-2.61 4.4,-4.04 4.4,-4.04 0,0 1,-0.81 3.1,-2.37 1.7,-1.36 4.1,-3.23 7.3,-5.66 1.2,-0.99 2.6,-2.05 4.1,-3.23 0,-0.06 0.1,-0.13 0.2,-0.13 9.2,-7.15 22.5,-17.53 39.4,-30.72 7.3,-5.66 15.2,-11.82 23.8,-18.47 3.8,-2.92 7.7,-5.97 11.7,-9.08 1.2,-1 2.5,-1.99 3.8,-2.99 5.2,-4.04 10.7,-8.27 16.3,-12.69 4.8,-3.66 9.6,-7.46 14.7,-11.38 0.8,-0.68 1.6,-1.31 2.5,-1.99 1.7,-1.31 3.4,-2.61 5.1,-3.92 1.1,-0.87 2.2,-1.74 3.3,-2.55 0.4,-0.31 0.8,-0.68 1.2,-0.93 7.7,-6.03 15.7,-12.25 24,-18.72 6.5,-5.04 13.1,-10.2 20,-15.49 4.4,-3.48 9,-7.09 13.6,-10.7 2.2,-1.61 4.3,-3.23 6.4,-4.91 15.7,-12.13 32,-24.88 49,-38.06 1.7,-1.31 3.3,-2.55 5,-3.86 7.1,-5.47 14.2,-11.07 21.5,-16.73 20.5,-15.99 41.9,-32.59 64.1,-49.76 5.6,-4.35 11.2,-8.77 16.9,-13.18 0.7,-0.56 1.3,-1.06 2,-1.62 11.2,-8.65 22.5,-17.42 34,-26.31 3.4,-2.74 6.9,-5.41 10.4,-8.15 4.7,-3.61 9.4,-7.28 14.2,-11.01 2.3,-1.8 4.7,-3.67 7.2,-5.53 3.6,-2.93 7.4,-5.79 11.1,-8.71 12.1,-9.39 24.5,-18.97 36.9,-28.61 7,-5.47 14,-10.95 21.1,-16.42 v 0 0 l 0.1,-0.13" /></g><g
         transform="scale(1.05877)"
         id="g38"><path
           id="path40"
           style="fill:#f8fbff;fill-opacity:1;fill-rule:nonzero;stroke:none"
           d="m 15632.8,14858.1 c 0,184.2 149.3,333.6 333.6,333.6 184.2,0 333.6,-149.4 333.6,-333.6 0,-184.2 -149.4,-333.6 -333.6,-333.6 -184.3,0 -333.6,149.4 -333.6,333.6" /></g><g
         transform="scale(1.26354)"
         id="g42"><path
           id="path44"
           style="fill:#f8fcff;fill-opacity:1;fill-rule:nonzero;stroke:none"
           d="m 12043.4,10984.7 c 0,0 212.8,300.9 721.8,267.4 0,0 738.8,501.5 1526.8,66.9 0,0 837.6,107.7 1457.8,-93.2 413.6,-134 550.2,-274.5 550.2,-274.5 l -4256.6,33.4" /></g><g
         transform="scale(1.08572)"
         id="g46"><path
           id="path48"
           style="fill:#f8fcff;fill-opacity:1;fill-rule:nonzero;stroke:none"
           d="m 11014.8,15512.5 c 0,0 176.8,308.1 599.7,273.9 0,0 614.2,513.6 1269,68.5 0,0 696.1,110.3 1211.6,-95.5 343.8,-137.2 457.2,-281.2 457.2,-281.2 l -3537.5,34.3" /></g><path
         id="path50"
         style="fill:#9bcc8f;fill-opacity:1;fill-rule:nonzero;stroke:none"
         d="M 10027.3,2523.9 H 3204.01 c -23.73,13.8 -47.34,28.5 -70.69,44 -182.25,121.3 -351.16,295.2 -507.14,510.4 -85.41,209.1 -148.87,404.5 -193.28,588.5 -168.8,699.6 -62.19,1233.4 153.43,1714 606.77,169.2 1458.47,699.5 3011.99,349.2 2294.94,-517.4 2079.95,-2191.3 3048.92,-2321.9 813.38,-109.8 1233.58,-658.2 1347.67,-831.6 1.4,-2.1 2.92,-4.3 4.19,-6.4 19,-29.2 28.2,-46.2 28.2,-46.2" /><path
         id="path52"
         style="fill:#8ebf83;fill-opacity:1;fill-rule:nonzero;stroke:none"
         d="m 6949.42,2520.8 c -27.16,-34.6 -2288.21,-25 -3689.7,-8.7 -18.66,9.6 -347.3,-1.2 -362.67,13.5 -592.25,566.6 -520.2,1728.1 -547.36,1791.3 371.85,27.5 644.66,-369.1 1012.58,-735.6 693.95,-691 1861.03,-81.9 2423.12,-280.7 562.09,-198.9 377.69,-480.1 744.72,-552.2 366.9,-72.1 458.53,-177.4 419.31,-227.6" /><g
         transform="scale(1.16801)"
         id="g54"><path
           id="path56"
           style="fill:#ff9f57;fill-opacity:1;fill-rule:nonzero;stroke:none"
           d="m 16300,5046.89 v -266.01 h -516.2 c -51.9,0 -94.2,38.53 -94.2,86.05 v 104.02 c 0,86.73 77,157.02 171.9,157.02 h 349.7 c 49.1,0 88.8,-36.3 88.8,-81.08" /></g><g
         transform="scale(1.18502)"
         id="g58"><path
           id="path60"
           style="fill:#ff9f57;fill-opacity:1;fill-rule:nonzero;stroke:none"
           d="m 16300,4859.56 v -147.34 h -742.9 c -51.2,0 -92.8,37.98 -92.8,84.81 v 62.53 h 835.7" /></g><g
         transform="scale(1.53688)"
         id="g62"><path
           id="path64"
           style="fill:#ffa969;fill-opacity:1;fill-rule:nonzero;stroke:none"
           d="m 12367.1,3529.74 109.7,169.04 h 3782.5 l 40.7,-169.04 -1083.2,-639.15 h -2040.7 l -809,639.15" /></g><g
         transform="scale(1.53441)"
         id="g66"><path
           id="path68"
           style="fill:#f99746;fill-opacity:1;fill-rule:nonzero;stroke:none"
           d="m 13056.9,4506.68 c 359.5,25.09 1534.2,92.74 2659.2,0 61.9,-5.15 119.2,-37.08 158.7,-88.31 109.6,-142.14 330.1,-447.21 410.7,-699.68 14.5,-45.16 -16.7,-92.22 -61.3,-92.22 h -3669.8 c -44.6,0 -74.8,48.56 -57.5,92.48 55.7,142.07 179.9,424.6 372.6,682.87 46,61.59 113.9,99.78 187.4,104.86" /></g><g
         transform="scale(1.52273)"
         id="g70"><path
           id="path72"
           style="fill:#8eadf4;fill-opacity:1;fill-rule:nonzero;stroke:none"
           d="m 16256.4,3654.29 v 0 c -7.6,-3.61 -16,-5.65 -25,-5.65 h -3463.3 c -23.6,0 -42.9,14.39 -52.4,34.29 -7.5,15.69 -9,34.8 -1.9,53.06 52.6,134.03 169.8,400.59 351.7,644.37 43.3,58.12 107.5,94.17 176.8,99.03 339.2,23.58 1448,87.41 2509.6,-0.07 58.5,-4.79 112.5,-34.93 149.9,-83.33 103.4,-134.11 311.4,-422.08 387.5,-660.27 10.7,-33.55 -5.1,-68.16 -32.9,-81.43" /></g><g
         transform="scale(1.58587)"
         id="g74"><path
           id="path76"
           style="fill:#ff9f57;fill-opacity:1;fill-rule:nonzero;stroke:none"
           d="m 15850.5,3521.16 h 383.2 c 36.7,0 66.3,29.63 66.3,66.27 v 68.42 c 0,66.77 -54.2,120.94 -121,120.94 h -266 c -34.5,0 -62.5,-27.94 -62.5,-62.43 v -193.2" /></g><g
         transform="scale(1.54214)"
         id="g78"><path
           id="path80"
           style="fill:#ff9f57;fill-opacity:1;fill-rule:nonzero;stroke:none"
           d="m 16300,3734.22 h -179.9 v -113.21 h 179.9 v 113.21" /></g><g
         transform="scale(1.28073)"
         id="g82"><path
           id="path84"
           style="fill:#ffa969;fill-opacity:1;fill-rule:nonzero;stroke:none"
           d="m 14499.3,3468.72 c 0,0 -85.4,463.57 341.3,766.99 0,0 1162.5,111.11 1459.4,-766.99 h -1800.7" /></g><g
         transform="scale(1.57041)"
         id="g86"><path
           id="path88"
           style="fill:#ffa969;fill-opacity:1;fill-rule:nonzero;stroke:none"
           d="m 16230.3,2828.88 c 0,0 69.7,378.05 -278.3,625.5 0,0 -948.1,90.62 -1190.2,-625.5 h 1468.5" /></g><g
         transform="scale(1.21468)"
         id="g90"><path
           id="path92"
           style="fill:#233862;fill-opacity:1;fill-rule:nonzero;stroke:none"
           d="m 16158.2,2027.78 h -512.3 c -78.4,0 -141.8,63.47 -141.8,141.85 v 682.15 c 0,78.37 63.4,141.85 141.8,141.85 h 512.3 c 78.3,0 141.8,-63.48 141.8,-141.85 v -682.15 c 0,-78.38 -63.5,-141.85 -141.8,-141.85" /></g><g
         transform="scale(1.5544)"
         id="g94"><path
           id="path96"
           style="fill:#233862;fill-opacity:1;fill-rule:nonzero;stroke:none"
           d="m 16189.1,1584.6 h -400.3 c -61.2,0 -110.8,49.6 -110.8,110.85 v 533.06 c 0,61.25 49.6,110.85 110.8,110.85 h 400.3 c 61.2,0 110.9,-49.6 110.9,-110.85 v -533.06 c 0,-61.25 -49.7,-110.85 -110.9,-110.85" /></g><g
         transform="scale(1.56425)"
         id="g98"><path
           id="path100"
           style="fill:#ffa969;fill-opacity:1;fill-rule:nonzero;stroke:none"
           d="m 16300,2840.02 v -867.64 c 0,-90.08 -79.8,-163.08 -178.4,-163.08 h -1022.9 c -36.4,0 -69.9,11.64 -96.1,31 -16.6,12.15 -30.3,27.43 -40.2,44.82 -22.2,39.12 -65.4,64.5 -113.5,64.5 h -1549.7 c -63.8,0 -110.4,-29.59 -145.2,-78.5 -23.6,-33.12 -47.9,-63.74 -104.8,-61.82 H 12039 c -92.6,0 -167.8,68.72 -167.8,153.43 v 877.29 H 16300" /></g><g
         transform="scale(1.55183)"
         id="g102"><path
           id="path104"
           style="fill:#f9ddbf;fill-opacity:1;fill-rule:nonzero;stroke:none"
           d="M 16300,3252.04 V 2984.8 c 0,-36.47 -32.3,-66.05 -72.3,-66.05 h -973 c -33.2,0 -53.1,33.64 -34.8,58.96 l 98.1,136.55 c 71.8,99.88 191.8,162.13 322.5,167.29 l 598.9,23.58 c 33,1.36 60.6,-22.81 60.6,-53.09" /></g><g
         transform="scale(1.26562)"
         id="g106"><path
           id="path108"
           style="fill:#f9ddbf;fill-opacity:1;fill-rule:nonzero;stroke:none"
           d="m 16235.1,3578.8 h -1193.2 c -49,0 -88.7,36.27 -88.7,80.99 v 327.66 c 0,37.14 33.8,66.77 74.5,65.11 l 61.4,-2.45 413.9,-16.28 71.8,-2.84 187.2,-7.35 c 119,-4.66 230.7,-48.04 316.4,-120.18 29.8,-24.97 56.3,-53.41 79,-84.93 l 120.3,-167.43 c 22.3,-31.05 -2,-72.3 -42.6,-72.3" /></g><g
         transform="scale(1.20765)"
         id="g110"><path
           id="path112"
           style="fill:#f9ddbf;fill-opacity:1;fill-rule:nonzero;stroke:none"
           d="m 16266,2876.74 h -625.2 c -25.7,0 -46.5,-18.96 -46.5,-42.48 v -171.65 c 0,-19.46 17.8,-34.94 39,-34.12 l 32.2,1.25 216.8,8.53 37.7,1.49 98.1,3.89 c 62.3,2.48 120.9,25.17 165.8,63.01 15.6,13.08 29.5,27.99 41.3,44.47 l 63.1,87.77 c 11.7,16.23 -1.1,37.84 -22.3,37.84" /></g><g
         transform="scale(1.55061)"
         id="g114"><path
           id="path116"
           style="fill:#f9ddbf;fill-opacity:1;fill-rule:nonzero;stroke:none"
           d="m 15776.9,2240.47 h 486.9 c 20,0 36.2,-14.77 36.2,-33.09 V 2073.7 c 0,-15.16 -13.8,-27.22 -30.4,-26.57 l -25.1,0.96 -168.9,6.65 -29.3,1.16 -76.4,3.03 c -48.5,1.93 -94.1,19.6 -129.1,49.07 -12.1,10.19 -23,21.8 -32.2,34.64 l -49.1,68.36 c -9.2,12.64 0.8,29.47 17.4,29.47" /></g><g
         transform="scale(1.43107)"
         id="g118"><path
           id="path120"
           style="fill:#f49453;fill-opacity:1;fill-rule:nonzero;stroke:none"
           d="m 14532.7,3468.59 h 1722.6 c 26.9,0 44.7,-27.19 33.3,-50.95 l -85.5,-178.53 c -21.7,-45.21 -68.2,-74.07 -119.4,-74.07 h -1364.3 c -46.6,0 -89.5,24.59 -112.2,64.29 l -106.4,186.57 c -13.5,23.61 4,52.69 31.9,52.69" /></g><g
         transform="scale(1.42406)"
         id="g122"><path
           id="path124"
           style="fill:#f9ddbf;fill-opacity:1;fill-rule:nonzero;stroke:none"
           d="M 16248.1,2502.7 H 14778 c -28.6,0 -51.9,23.25 -51.9,51.9 v 191.14 c 0,28.65 23.3,51.89 51.9,51.89 h 1470.1 c 28.7,0 51.9,-23.24 51.9,-51.89 V 2554.6 c 0,-28.65 -23.2,-51.9 -51.9,-51.9" /></g><g
         transform="scale(1.24848)"
         id="g126"><path
           id="path128"
           style="fill:#fff3e9;fill-opacity:1;fill-rule:nonzero;stroke:none"
           d="m 16300,3937.03 c 0,-142.17 -126.2,-257.51 -281.7,-257.51 -155.6,0 -281.8,115.34 -281.8,257.51 0,55.67 19.3,107.17 52.2,149.3 l 189.7,-7.44 c 120.6,-4.73 233.9,-48.7 320.8,-121.83 0.5,-6.65 0.8,-13.3 0.8,-20.03" /></g><g
         transform="scale(1.20406)"
         id="g130"><path
           id="path132"
           style="fill:#fff3e9;fill-opacity:1;fill-rule:nonzero;stroke:none"
           d="m 16300,4200.14 c 0,-113.2 -100.4,-204.89 -224.2,-204.89 -123.7,0 -224,91.69 -224,204.89 0,19.85 3,38.95 8.8,57.06 l 435.1,-17.11 c 2.8,-12.96 4.3,-26.25 4.3,-39.95" /></g><g
         transform="scale(1.50764)"
         id="g134"><path
           id="path136"
           style="fill:#fff3e9;fill-opacity:1;fill-rule:nonzero;stroke:none"
           d="m 15833.4,3260.27 c 0,-117.74 104.5,-213.25 233.3,-213.25 128.9,0 233.3,95.51 233.3,213.25 0,46.09 -15.9,88.74 -43.1,123.63 l -157.1,-6.16 c -99.9,-3.92 -193.7,-40.33 -265.7,-100.89 -0.4,-5.51 -0.7,-11.01 -0.7,-16.58" /></g><g
         transform="scale(1.54202)"
         id="g138"><path
           id="path140"
           style="fill:#fff3e9;fill-opacity:1;fill-rule:nonzero;stroke:none"
           d="m 15950,3279.6 c 0,-88.39 78.3,-159.99 175,-159.99 96.7,0 175,71.6 175,159.99 0,15.5 -2.4,30.41 -6.9,44.55 l -339.7,-13.36 c -2.2,-10.12 -3.4,-20.49 -3.4,-31.19" /></g><g
         transform="scale(1.43974)"
         id="g142"><path
           id="path144"
           style="fill:#233862;fill-opacity:1;fill-rule:nonzero;stroke:none"
           d="m 16300,1999.45 c -18.1,13.2 -32.9,29.8 -43.7,48.69 -24.1,42.51 -71,70.09 -123.3,70.09 h -1683.7 c -69.3,0 -119.9,-32.16 -157.8,-85.3 0,0 37.7,275.33 230.3,275.96 192.5,0.62 1579.8,0 1579.8,0 0,0 175.5,-5.35 198.4,-309.44" /></g><g
         transform="scale(1.51866)"
         id="g146"><path
           id="path148"
           style="fill:#ffa969;fill-opacity:1;fill-rule:nonzero;stroke:none"
           d="m 16300,3661.99 v 0 c -7.6,-2.31 -16,-3.56 -25,-3.56 h -3472.6 c -23.7,0 -43,9.09 -52.6,21.67 0,0 52.3,20.74 131.1,22.84 78.8,2.11 3259.1,0 3259.1,0 0,0 143.9,-5.59 160,-40.95" /></g><path
         id="path150"
         style="fill:#f99746;fill-opacity:1;fill-rule:nonzero;stroke:none"
         d="m 4580.75,6506.1 c 0,0 -241.14,-2528.9 -444.2,-3098.3 l 517.2,-77.7 c 0,0 612.31,2617.6 751.92,3023.7 0,0 -279.21,253.8 -824.92,152.3" /><g
         transform="scale(1.0371)"
         id="g152"><path
           id="path154"
           style="fill:#ffb27d;fill-opacity:1;fill-rule:nonzero;stroke:none"
           d="m 13932.2,11654.8 c 0,0 1013.5,-970.6 1503.1,-997.8 489.4,-27.2 864.7,-35.4 864.7,-35.4 V 10434 c 0,0 -713.3,-227.9 -1419.5,-127.8 -141.3,20 -1117.7,552 -1117.7,552 l 169.4,796.6" /></g><path
         id="path156"
         style="fill:#233862;fill-opacity:1;fill-rule:nonzero;stroke:none"
         d="m 14207.8,13765 c 0,0 -604.1,725.9 -924,261.4 0,0 -238.5,-99 -324.8,-505.1 -88.1,-414.3 187.5,-729.3 329.9,-651.4 91.4,49.9 160.6,-110 160.6,-110 l 758.3,1005.1" /><path
         id="path158"
         style="fill:#466aa5;fill-opacity:1;fill-rule:nonzero;stroke:none"
         d="m 11813.6,9219.2 c 16.8,-40.7 89.7,-76.9 194.7,-103 235.3,-58.5 632.1,-66.2 921.5,41 310.3,114.9 535.4,1755.1 631.1,2595.7 33.4,293.2 51.1,489.3 51.1,489.3 0,0 -178.3,279 -868.2,186 -689.8,-93 -759.6,-325.6 -821.6,-744.1 -62.1,-418.6 -162.8,-2333.1 -108.6,-2464.9" /><path
         id="path160"
         style="fill:#163560;fill-opacity:1;fill-rule:nonzero;stroke:none"
         d="m 12008.3,9116.2 c 235.3,-58.5 632.1,-66.2 921.5,41 310.3,114.9 535.4,1755.1 631.1,2595.7 -81.7,289.3 -146.6,479.6 -146.6,479.6 0,0 -866.2,104.7 -1034.8,-157 -150.8,-233.9 -334.1,-2486.1 -371.2,-2959.3" /><path
         id="path162"
         style="fill:#233862;fill-opacity:1;fill-rule:nonzero;stroke:none"
         d="m 13349.8,14100 c 0,0 -81.2,324.9 -558.4,223.4 0,0 228.5,28.8 291.1,-59.2 0,0 -181.1,82.9 -294.4,13.5 -113.4,-69.4 -132,-302.9 -115.1,-374 16.9,-71 142.1,-282.5 225,-282.5 83,0 181.1,72.7 181.1,72.7 l 270.7,406.1" /><path
         id="path164"
         style="fill:#ffb27d;fill-opacity:1;fill-rule:nonzero;stroke:none"
         d="m 12635.8,9015.2 c 237.3,532.1 350.8,682.6 354.7,850 3.2,132.4 -62.1,275.2 -188.9,625.5 -29.9,82.6 -50.5,167.4 -63.2,253.2 -85.9,578.6 -7,1329 282.8,1423.7 76.2,24.9 215.4,24.2 250.1,31.3 67.6,17.9 182,261.8 180.6,654.8 l 30.4,-6 511.1,-101.2 c 0,0 -11.7,-160.9 -12,-312.4 -0.3,-126.2 7.3,-245.9 35.9,-261 36.8,-3.3 58.5,-5.5 58.5,-5.5 0,0 426.1,-591.8 461.9,-1142.1 35.9,-550.4 -341.2,-789.5 2.9,-1889.4 351.3,-1123.3 -2035.9,-414.9 -1904.8,-120.9" /><path
         id="path166"
         style="fill:#e8945b;fill-opacity:1;fill-rule:nonzero;stroke:none"
         d="m 13993.4,12746.5 c 0,0 -11.7,-160.9 -12,-312.4 -286,8.1 -437.1,269 -499.1,413.6 l 511.1,-101.2" /><path
         id="path168"
         style="fill:#233862;fill-opacity:1;fill-rule:nonzero;stroke:none"
         d="m 13429.5,12903.3 c 0,0 -149.8,236.8 -185.8,439.3 -25.7,144.5 48,680.4 586.4,603.2 0,0 156.4,-15.4 303.4,-114.7 116.9,-79 285.6,-249.4 97,-717 l -49,-157.9 -752,-52.9" /><path
         id="path170"
         style="fill:#ffb27d;fill-opacity:1;fill-rule:nonzero;stroke:none"
         d="m 14088.9,12603 c 0,0 -676.6,-11.1 -677.1,410.3 -0.5,421.5 -88.1,703.9 343.9,728.8 431.9,25 516.1,-135.7 550.4,-276.4 34.4,-140.6 -41.2,-848.9 -217.2,-862.7" /><path
         id="path172"
         style="fill:#233862;fill-opacity:1;fill-rule:nonzero;stroke:none"
         d="m 14063.8,13752.5 c 0,0 -185.2,-494.5 -469.5,-567.6 -284.3,-73.1 -407.7,3 -407.7,3 0,0 218.1,173.3 263.4,475.7 0,0 474.1,324.2 613.8,88.9" /><path
         id="path174"
         style="fill:#233862;fill-opacity:1;fill-rule:nonzero;stroke:none"
         d="m 14017.9,13712.3 c 0,0 138.4,-110.4 172.1,-217.7 33.7,-107.3 48.9,-328.3 113.3,-320.7 0,0 139.6,336 -17.3,526.2 -166.3,201.6 -268.1,12.2 -268.1,12.2" /><path
         id="path176"
         style="fill:#ed7d2b;fill-opacity:1;fill-rule:nonzero;stroke:none"
         d="m 13234.9,3909.2 c 170.2,-677.1 426.5,-1196.3 426.5,-1196.3 l 223.1,15.5 c 0,0 -109.4,520.6 -103.1,1223.9 4.4,491.7 65.2,1072.8 259.5,1627.6 667.6,1906.7 559.7,3294.4 559.7,3294.4 l -1255.5,-146.8 -58.5,-6.9 c -5.2,-576.6 -20.1,-1359.4 -33.1,-1971.6 -11.5,-550.5 -21.6,-962.9 -21.6,-962.9 -241.4,-519.9 -153.7,-1253.6 3,-1876.9" /><path
         id="path178"
         style="fill:#f99746;fill-opacity:1;fill-rule:nonzero;stroke:none"
         d="m 12514.6,4017.4 c 72.2,-770.4 390.1,-1268.6 390.1,-1268.6 l 106.5,-77.5 c 0,0 100.9,542.8 172.3,1188.5 68,613.8 161.3,1263.3 266.7,1461.5 418.7,786.2 544.8,3754.3 544.8,3754.3 l -1273,63.1 c -128,-215.2 -183.8,-568.2 -197,-969.6 -33.5,-1012.9 204.6,-2333.7 240.2,-2524.8 l 0.1,-0.4 c 2.8,-14.8 -1.5,-29.3 -8.4,-42.7 -253.2,-501.4 -289.8,-1074.9 -242.3,-1583.8" /><path
         id="path180"
         style="fill:#233862;fill-opacity:1;fill-rule:nonzero;stroke:none"
         d="m 14043.6,13695.6 c 0,0 -132,-517.8 -490.7,-683.6 0,0 358.7,318.1 389.2,659.9 30.4,341.8 101.5,23.7 101.5,23.7" /><path
         id="path182"
         style="fill:#f9ddbf;fill-opacity:1;fill-rule:nonzero;stroke:none"
         d="m 12476.2,8631.1 c -2.2,-42.9 0.2,-77.2 8,-101.8 27,-85.2 120.1,-124 344.9,-100.8 137.5,14.3 198.7,244.6 226,441.1 82.6,-281.1 198.2,-438.9 347.6,-472 218,-48.5 1317.7,-182.2 1389.6,340.5 79.2,575 -157.9,1593.1 -170.9,2142 32.3,194.6 43.4,363.5 39.9,508.6 -9.2,391.1 -123.9,610.2 -212.2,698.5 -25,19.2 -50,31.1 -150.3,48.3 -51.3,8.8 -122.3,18.9 -223,32.1 0,0 -41.1,4.7 -40.2,3.1 18.6,-33.2 221.6,-364.3 202.2,-461.2 -20.4,-101.5 -687.5,-116.4 -783.7,-12.7 -56.2,60.5 -292.1,495.7 -292.1,495.7 0,0 -312.8,-34.2 -465.8,-145.4 0,0 0.6,-0.7 1.7,-2 -18.5,-13.3 -32.4,-27.3 -40.3,-42.3 -61.1,-116.4 -99.8,-576.9 -125.1,-1123.1 -8.1,-174.3 42,-873.7 36.4,-1057 -23.9,-776.9 -85.2,-1043 -92.7,-1191.6" /><path
         id="path184"
         style="fill:#142644;fill-opacity:1;fill-rule:nonzero;stroke:none"
         d="m 13532.9,2525.9 h 142.4 c 47.7,7.5 83,21.3 131.9,27.7 74.3,9.7 108.5,-20.7 115.3,-27.7 1,-1 1.4,-1.5 1.4,-1.5 h 605.1 c 15.2,21.8 0.6,72.1 -13.7,109.2 -9.7,25.2 -30.7,44.2 -56.7,51.8 -64.1,18.5 -190.7,35.1 -306.5,140 -65.2,58.8 -314.7,216.5 -314.7,216.5 l -1.4,0.3 c -5.4,-0.1 -31.5,-8.1 -145,-103.9 -58.7,-49.5 -158.7,69.8 -158.7,69.8 0,0 -18.8,-15.5 -32.8,-44.5 -11.3,-22.8 -19.5,-54.2 -13,-92.9 9,-54.5 -20.1,-155.8 -43.4,-224.3 -14.1,-41.6 -26,-71 -26,-71 0,0 -6.8,-34.2 115.8,-49.5" /><path
         id="path186"
         style="fill:#233862;fill-opacity:1;fill-rule:nonzero;stroke:none"
         d="m 12772.7,2525.9 h 142.5 c 47.7,7.5 82.9,21.3 131.9,27.7 74.3,9.7 108.5,-20.7 115.3,-27.7 0.9,-1 1.3,-1.5 1.3,-1.5 h 605.1 c 15.3,21.8 0.6,72.1 -13.7,109.2 -9.6,25.2 -30.6,44.2 -56.6,51.8 -64.2,18.5 -190.7,35.1 -306.5,140 -65.2,58.8 -314.8,216.5 -314.8,216.5 l -1.3,0.3 c -5.5,-0.1 -31.6,-8.1 -145.1,-103.9 -58.7,-49.5 -158.7,69.8 -158.7,69.8 0,0 -18.7,-15.5 -32.8,-44.5 -11.2,-22.8 -19.5,-54.2 -13,-92.9 9.1,-54.5 -20.1,-155.8 -43.3,-224.3 -14.1,-41.6 -26,-71 -26,-71 0,0 -6.8,-34.2 115.7,-49.5" /><path
         id="path188"
         style="fill:#ffffff;fill-opacity:1;fill-rule:nonzero;stroke:none"
         d="m 13939.2,12844.5 c 0,0 32.2,-70.6 107.6,-73.8 75.3,-3.1 100.7,1.6 111,16.7 10.3,15.1 19.8,42 29.4,57.1 0,0 -115.1,20.6 -248,0" /><path
         id="path190"
         style="fill:#ffb27d;fill-opacity:1;fill-rule:nonzero;stroke:none"
         d="m 12697.9,12045.1 c 0,0 -1107.3,-1132.9 -1065,-1520.5 42.3,-387.5 962.7,-1307.4 962.7,-1307.4 l 81.1,239.2 c 0,0 -520.6,1053.8 -476.2,1110.9 44.4,57.1 645.1,431.5 702.2,533 57.1,101.5 -204.8,944.8 -204.8,944.8" /><path
         id="path192"
         style="fill:#ffb27d;fill-opacity:1;fill-rule:nonzero;stroke:none"
         d="m 12676.7,9456.4 c 0,0 328.8,33.7 359.2,0 30.4,-33.8 151.9,-296.2 55.7,-303.8 -96.2,-7.6 -206.9,93.9 -251.5,72.3 -44.7,-21.7 -126.3,-104.1 -217.1,-47.7 -28.4,17.6 -51.1,71.9 -94.6,108.7 l 148.3,170.5" /><path
         id="path194"
         style="fill:#ffb27d;fill-opacity:1;fill-rule:nonzero;stroke:none"
         d="m 12676.7,9456.4 c 0,0 127.9,38.8 163.4,67.5 35.5,28.7 45.6,-53.5 -28.7,-78.8 -74.2,-25.3 -134.7,11.3 -134.7,11.3" /><g
         transform="scale(1.06331)"
         id="g196"><path
           id="path198"
           style="fill:#ffb27d;fill-opacity:1;fill-rule:nonzero;stroke:none"
           d="m 16242.9,10201.7 h -0.1 c -15.5,-11.2 -36,-19.7 -63.1,-24.9 -126.8,-23.8 -281.5,0 -281.5,0 v 183 c 0,0 53.7,39.9 77.6,71.6 23.9,31.9 65.7,136.3 65.7,136.3 61.9,-5.2 9.7,-138 41,-142.5 15.7,-2.1 65,2.2 111,-1.9 h 0.2 c 46.1,-3.9 88.8,-16.2 91.4,-51.6 3.9,-54.6 14.9,-129.1 -42.2,-170" /></g><g
         transform="scale(1.06331)"
         id="g200"><path
           id="path202"
           style="fill:#ef9f6a;fill-opacity:1;fill-rule:nonzero;stroke:none"
           d="m 16242.9,10201.7 h -0.1 c -120.9,-22 -209.3,104.4 -208.3,155.1 1,50.7 159,66.5 159,66.5 h 0.2 c 46.1,-3.9 88.8,-16.2 91.4,-51.6 3.9,-54.6 14.9,-129.1 -42.2,-170" /></g><path
         id="path204"
         style="fill:#f9ddbf;fill-opacity:1;fill-rule:nonzero;stroke:none"
         d="m 14368.8,12121.6 c 0,0 104.2,-10.2 293.1,-183.7 188.9,-173.4 633.4,-548.3 633.4,-548.3 0,0 -110.1,-480.2 -673.9,-509.5 l -252.6,1241.5" /><path
         id="path206"
         style="fill:#466aa5;fill-opacity:1;fill-rule:nonzero;stroke:none"
         d="m 14075.8,12167.6 c 0,0 0.4,-0.8 1.4,-2.3 30,-47.4 499.2,-797.5 544.2,-1285.2 32.3,194.6 43.4,363.5 39.9,508.6 -60.3,184.3 -206.8,593.7 -362.5,746.8 -19.6,19.3 -223,32.1 -223,32.1" /><path
         id="path208"
         style="fill:#f9ddbf;fill-opacity:1;fill-rule:nonzero;stroke:none"
         d="m 12716.6,12060.9 c 0,0 -136.4,-84.9 -307.7,-265.8 -171.4,-180.8 -453.8,-558.4 -453.8,-558.4 0,0 171.5,-498.8 750,-548.2 578.4,-49.3 265.3,555.6 265.3,555.6 l -253.8,816.8" /><path
         id="path210"
         style="fill:#466aa5;fill-opacity:1;fill-rule:nonzero;stroke:none"
         d="m 12821.3,12249.9 c 0,0 378,-229 424.5,-1124.2 46.6,-895.3 -676.9,-1303 -676.9,-1303 l -6.9,275.5 c 0,0 604.3,534.3 433.8,1247.5 -170.5,713.1 -426.9,865.9 -426.9,865.9 l 252.4,38.3" /><g
         transform="scale(1.03098)"
         id="g212"><path
           id="path214"
           style="fill:#9bcc8f;fill-opacity:1;fill-rule:nonzero;stroke:none"
           d="m 6871.82,15149.2 c 324.36,-524.6 608.1,-645.2 171.1,-1106.5 -510.23,-538.5 123.84,-1052.9 -547.28,-1483.3 -454.98,-291.7 -759.4,-92.8 -1490.59,-580.5 -482.67,-321.9 -1060.25,-317 -1397.04,-276.5 477.86,1870.9 2003.29,3505.8 3989.47,4597.6 162.74,-900.6 -1060.48,-609.6 -725.66,-1150.8" /></g><g
         transform="scale(1.00964)"
         id="g216"><path
           id="path218"
           style="fill:#82b378;fill-opacity:1;fill-rule:nonzero;stroke:none"
           d="m 16175.1,2500.29 h -844.7 c -45.3,38.43 31.3,125.58 111.3,131.53 34.7,2.57 78.7,-4.66 128.9,-15.35 11.6,154.41 78.1,848.52 328.2,820.58 281.4,-31.2 0,-305.65 -79.5,-468.08 -58.9,-120.34 -121.1,-292.98 -149.4,-374.39 22.8,-4.95 46.4,-9.81 70.6,-14.27 37.2,114.5 176,499.59 352.4,477.1 207.1,-26.24 123.9,-180.65 -22.9,-272.27 -107.7,-67.35 -240,-163.13 -302.9,-209.48 53.3,-8.62 108.9,-14.56 165.2,-13.17 144.8,3.37 215.4,-39.22 242.8,-62.2" /></g><path
         id="path220"
         style="fill:#82b378;fill-opacity:1;fill-rule:nonzero;stroke:none"
         d="m 11495.3,2568.2 c -48.8,76.8 -195.8,276 -391.7,249.6 -213.3,-28.7 235.7,-169.4 373.1,-250.2 -30.5,-0.4 -56.7,2.1 -76,8.9 -91.9,32.8 -249.3,-30 -299.6,-52.1 h 874.9 c -6.1,21 -21.8,55.1 -62.6,80 -14.4,8.8 -43.2,10 -80.5,7.2 52,61.3 88.1,257.2 -56.7,206.8 -105.8,-36.8 -105.5,-156.5 -95.1,-227.3 -22.5,-3.6 -45.3,-7.1 -67.9,-10.3 -43.5,221.9 -197.6,872.6 -509.9,889.9 -316.6,17.6 268.5,-674.7 463.3,-896.2 -25,-3 -49,-5.2 -71.3,-6.3" /><path
         id="path222"
         style="fill:#163560;fill-opacity:1;fill-rule:nonzero;stroke:none"
         d="m 4033.16,4136.7 h -567.13 c 0,0 -124.58,-22.8 -175.7,-445.4 -51.12,-422.7 -200.34,-1175.7 -200.34,-1175.7 h 752.08 l 191.09,1621.1" /><path
         id="path224"
         style="fill:#1c468a;fill-opacity:1;fill-rule:nonzero;stroke:none"
         d="m 3649.62,2515.6 c 65.66,8.5 3056.06,0 3056.06,0 0,0 120.93,19 13.37,593.5 -5.37,28.9 -8.83,59.6 -10.62,91.7 -9.55,156.5 15.4,343.1 6.68,493.2 0,0 38.33,480.9 -534.69,441 -573.01,-39.9 -1617.56,-43.7 -2011.5,2.1 -393.95,45.7 -483.48,-297.2 -465.58,-512.5 2.87,-34.6 1.8,-86.8 -1.79,-150.1 -19.1,-331.3 -107.08,-965.9 -51.93,-958.9" /><path
         id="path226"
         style="fill:#1c468a;fill-opacity:1;fill-rule:nonzero;stroke:none"
         d="m 4536.54,3939 c 1.91,3.5 198.1,358 523.06,379.8 328.65,22.2 656.61,-339 659.87,-342.6 l 70.5,78.9 c -14.61,16.4 -362.45,400.3 -736.35,375.2 -377.98,-25.4 -593.46,-417 -602.45,-433.6 l 85.37,-57.7" /><path
         id="path228"
         style="fill:#ed7d2b;fill-opacity:1;fill-rule:nonzero;stroke:none"
         d="m 7418.97,4829.7 c 3.13,120 -56.49,231.7 -157.08,297.3 -163.15,106.4 -441.22,231.9 -823.56,207.6 -645.36,-41 -788.77,-399.5 -809.26,-676.1 -20.49,-276.5 -235.6,-676.1 -286.82,-983.4 -51.22,-307.3 -136.79,-1089.1 320.32,-1150.4 457.12,-61.4 1989.21,0 1989.21,0 0,0 356.95,418.4 0,1222.1 -211.74,476.8 -238.25,873.6 -232.81,1082.9" /><path
         id="path230"
         style="fill:#f99746;fill-opacity:1;fill-rule:nonzero;stroke:none"
         d="m 7730.73,4829.7 c 3.13,120 -56.49,231.7 -157.08,297.3 -163.15,106.4 -441.22,231.9 -823.56,207.6 -645.36,-41 -788.77,-399.5 -809.26,-676.1 C 5920.34,4382 5705.22,3982.4 5654,3675.1 5602.78,3367.8 5517.21,2586 5974.33,2524.7 c 457.12,-61.4 1989.21,0 1989.21,0 0,0 356.94,418.4 0,1222.1 -211.74,476.8 -238.26,873.6 -232.81,1082.9" /><path
         id="path232"
         style="fill:#ed7d2b;fill-opacity:1;fill-rule:nonzero;stroke:none"
         d="m 5886.2,3562.5 h 915.1 c 0,0 61.47,-669.3 -375.6,-689.8 -437.07,-20.5 -553.16,259.5 -539.5,689.8" /><path
         id="path234"
         style="fill:#f99746;fill-opacity:1;fill-rule:nonzero;stroke:none"
         d="m 5886.2,3562.5 c 0,0 157.07,-239.1 443.89,-232.2 286.83,6.8 471.21,232.2 471.21,232.2 h -915.1" /><path
         id="path236"
         style="fill:#ed7d2b;fill-opacity:1;fill-rule:nonzero;stroke:none"
         d="m 6987.05,3562.5 h 915.11 c 0,0 61.46,-669.3 -375.61,-689.8 -437.06,-20.5 -553.16,259.5 -539.5,689.8" /><path
         id="path238"
         style="fill:#f99746;fill-opacity:1;fill-rule:nonzero;stroke:none"
         d="m 6987.05,3562.5 c 0,0 157.07,-239.1 443.9,-232.2 286.82,6.8 471.21,232.2 471.21,232.2 h -915.11" /><path
         id="path240"
         style="fill:#ed7d2b;fill-opacity:1;fill-rule:nonzero;stroke:none"
         d="M 7123.98,4079.8 H 6637.4 c -225.36,0 -409.74,184.3 -409.74,409.7 0,225.4 184.38,409.8 409.74,409.8 h 486.58 c 225.37,0 409.76,-184.4 409.76,-409.8 0,-225.4 -184.39,-409.7 -409.76,-409.7" /><path
         id="path242"
         style="fill:#f99746;fill-opacity:1;fill-rule:nonzero;stroke:none"
         d="m 6265.21,4932.6 c 0,0 217.73,-331.3 615.33,-321.8 397.59,9.4 653.2,321.8 653.2,321.8 H 6265.21" /><path
         id="path244"
         style="fill:#f99746;fill-opacity:1;fill-rule:nonzero;stroke:none"
         d="m 7220.98,5243.1 -122.28,12.4 c 0,0.2 4.96,66 -38.26,115.4 -33.29,38 -88.51,59.3 -164.06,62.8 -71.55,3.5 -128.37,-12.2 -165.02,-46.9 -51.7,-48.8 -52.98,-123.1 -52.98,-123.9 l -122.93,-0.5 c 0,5.1 0.17,126.2 89.96,212.3 61.78,59.5 148.37,85 256.89,81.9 111.24,-5.4 196.07,-41.3 252.26,-106.6 77.46,-90.1 66.9,-202.3 66.42,-206.9" /><path
         id="path246"
         style="fill:#ffb27d;fill-opacity:1;fill-rule:nonzero;stroke:none"
         d="m 9384.48,12705.1 c 0,0 1739.12,176.1 1891.42,450.4 152.3,274.3 659.9,1416.5 659.9,1416.5 l 260.2,-95.2 c 0,0 -191.8,-1619.8 -602.8,-1977.7 -411.1,-357.8 -1831.49,-764.8 -1831.49,-764.8 l -377.23,970.8" /><path
         id="path248"
         style="fill:#ffb27d;fill-opacity:1;fill-rule:nonzero;stroke:none"
         d="m 12196,14476.8 c 0,0 207.3,452 126.9,502.8 -80.3,50.7 -319.3,6.3 -333.1,-132.2 -13.7,-138.6 206.2,-370.6 206.2,-370.6" /><path
         id="path250"
         style="fill:#f9ddbf;fill-opacity:1;fill-rule:nonzero;stroke:none"
         d="m 9188.24,12840 1663.96,111.1 c 0,0 121.3,-437.9 -98.7,-979.3 l -913.78,-237.5 -651.48,1105.7" /><path
         id="path252"
         style="fill:#f99746;fill-opacity:1;fill-rule:nonzero;stroke:none"
         d="m 7094.87,11734.3 c 0,0 -609.85,25.9 -698.68,-304 -88.84,-330 -228.45,-1964 0,-2213.1 228.44,-249 1452.11,-175.6 1452.11,-175.6 l -753.43,2692.7" /><path
         id="path254"
         style="fill:#f99746;fill-opacity:1;fill-rule:nonzero;stroke:none"
         d="m 9134.17,12788.6 c 0,0 -20.94,-231.9 -60.41,-578.6 C 8990,11473.4 8822.1,10217.6 8591.5,9561.1 8510.79,9331.5 8422.45,9175.3 8327.4,9140 c -244.31,-90.5 -553.34,-111.7 -811.47,-91.4 -103.44,8.3 -198.75,23.3 -278.45,43.1 -124.12,30.8 -210.29,73.6 -230.09,121.7 -64.09,155.9 54.95,2420.2 128.44,2915.1 73.22,495.1 103.3,783.6 925.82,817.3 966.68,39.8 1072.52,-157.2 1072.52,-157.2" /><path
         id="path256"
         style="fill:#ed7d2b;fill-opacity:1;fill-rule:nonzero;stroke:none"
         d="m 8807.5,11100.3 c 0,0 -127.42,-914.9 -216,-1539.2 -80.71,-229.6 -169.05,-385.8 -264.1,-421.1 -244.31,-90.5 -553.34,-111.7 -811.47,-91.4 -356.12,424.4 -70.7,3330.7 63.96,3574.6 136.68,247.5 975.57,174.7 975.57,174.7 l 252.04,-1697.6" /><path
         id="path258"
         style="fill:#233862;fill-opacity:1;fill-rule:nonzero;stroke:none"
         d="M 10667.1,2523.9 H 9361.91 c -93.5,63.4 25.23,683.4 25.23,683.4 0,0 356.21,135.2 417.73,-139.7 61.71,-274.7 453.73,-362 661.13,-395.5 142,-23.1 186.9,-101.1 201.1,-148.2" /><path
         id="path260"
         style="fill:#233862;fill-opacity:1;fill-rule:nonzero;stroke:none"
         d="M 8658.56,2523.9 H 7353.41 c -93.51,63.4 25.23,683.4 25.23,683.4 0,0 356.21,135.2 417.73,-139.7 61.71,-274.7 453.71,-362 661.17,-395.5 141.97,-23.1 186.83,-101.1 201.02,-148.2" /><path
         id="path262"
         style="fill:#2b478b;fill-opacity:1;fill-rule:nonzero;stroke:none"
         d="m 10315.9,8848.9 c 0,0 -58.6,-731.9 -127.6,-1611.7 -93.7,-1195.1 -346.47,-4158.3 -346.47,-4158.3 0,0 -165.71,-141.4 -532.75,-64 0,0 -312.42,1022.2 -405.85,2188.9 -1.45,19.1 -2.9,38.4 -4.34,57.7 -86.91,1187.7 -222.05,3688.8 -222.05,3688.8 l 1639.06,-101.4" /><path
         id="path264"
         style="fill:#2b478b;fill-opacity:1;fill-rule:nonzero;stroke:none"
         d="M 9822.8,9272.8 7877.94,3058 c 0,0 -119.32,-37.4 -335.4,0 -206.23,35.8 -249.51,89.2 -249.51,89.2 0,0 -71.92,2252.8 339.35,2980.3 230.01,406.9 -47.6,3020.2 578.5,3308.7 772.07,355.7 1611.92,-163.4 1611.92,-163.4" /><path
         id="path266"
         style="fill:#f9ddbf;fill-opacity:1;fill-rule:nonzero;stroke:none"
         d="m 10452.5,8418.2 c 0,0 -1450.88,-586.9 -2642.9,51.7 -22.73,12.2 -17.6,67.1 -14.14,92.8 231.19,1709.6 -0.32,3691.6 149.72,3983.1 110.74,215.2 796.37,350.3 1326.27,271.5 0,0 597.92,-133 728.95,-271.5 45.2,-47.7 310.6,-314.3 315.5,-635.8 6.8,-448.3 136.6,-3491.8 136.6,-3491.8" /><path
         id="path268"
         style="fill:#ffb27d;fill-opacity:1;fill-rule:nonzero;stroke:none"
         d="m 9339.7,12683.7 c -372.27,-202.2 -727.62,21.2 -696.46,130.9 22.77,80.1 89.66,137.4 32.95,552.7 -0.76,5.5 40.38,-2.2 102.54,-16.9 184.93,-43.8 556.71,-149.3 573.17,-154 h 0.63 c 0,0 4.56,-87.3 19.88,-243.9 1.26,-13.8 2.66,-28.2 4.17,-43.1 1.9,-18.4 2.58,-38.1 6.08,-57.9 22.38,-126.7 -42.96,-167.8 -42.96,-167.8" /><path
         id="path270"
         style="fill:#ed975d;fill-opacity:1;fill-rule:nonzero;stroke:none"
         d="m 9372.41,12952.5 c -276.08,-63.3 -688.12,344.3 -688.12,344.3 30.13,22.4 61.77,40.1 94.44,53.6 184.93,-43.8 556.71,-149.3 573.17,-154 h 0.63 c 0,0 4.56,-87.3 19.88,-243.9" /><path
         id="path272"
         style="fill:#ffb27d;fill-opacity:1;fill-rule:nonzero;stroke:none"
         d="m 9466.21,13218.5 c 0,0 -113.53,-40.7 -258.26,-60.2 -211.66,-28.6 -489.97,-11.7 -577.4,244.4 -147.27,431 -335.38,689.4 97.98,865.4 231.99,94.3 380.41,99.3 481.21,63.3 87.58,-31 139.22,-93 178.31,-154.3 84.16,-132 253.45,-883.1 78.16,-958.6" /><path
         id="path274"
         style="fill:#163560;fill-opacity:1;fill-rule:nonzero;stroke:none"
         d="m 9420.88,14437.4 c 97.88,-23.8 141.93,-178 48.75,-242.1 -167.04,-115 -371.2,-69.9 -446.41,-103.3 -107.78,-47.9 -127.15,-228.7 -129.08,-286.1 -1.94,-57.5 -9.5,-105.9 -155.87,-71.5 -23.98,5.6 -41.27,3.9 -53.15,-3.2 -60.72,-36 16.87,-210.6 40.27,-248.4 0,0 33.68,-125.1 -41.05,-186 -9.05,-7.3 -155.87,-71.5 -509.68,470 -55.61,85 -108.71,276.5 -22.82,460.8 85.78,184.4 351.09,412.7 669.47,412.7 251.9,0 392.42,-152.6 599.57,-202.9" /><path
         id="path276"
         style="fill:#ffffff;fill-opacity:1;fill-rule:nonzero;stroke:none"
         d="m 9469.49,13496.8 c 0,0 9.08,-55.8 -120.66,-100.3 0,0 -108.92,-37.4 -128.81,19.8 0,0 86.52,82.4 249.47,80.5" /><path
         id="path278"
         style="fill:#233862;fill-opacity:1;fill-rule:nonzero;stroke:none"
         d="M 8880.87,5516 9428,8011.2 8840.38,6133.5 Z" /><g
         transform="scale(1.00101)"
         id="g280"><path
           id="path282"
           style="fill:#f9ddbf;fill-opacity:1;fill-rule:nonzero;stroke:none"
           d="m 13623.6,14834.2 -2748.8,-243.8 -130,1465.8 2748.9,243.8 129.9,-1465.8" /></g><path
         id="path284"
         style="fill:#ffb27d;fill-opacity:1;fill-rule:nonzero;stroke:none"
         d="m 11935.8,14572 c 0,0 -53.9,113.6 -72.9,186.5 -19,73 9.5,295.1 57.1,263.4 47.6,-31.8 9.5,-146 69.8,-174.5 60.3,-28.6 150.7,-66.7 181.7,-142.8 30.9,-76.2 24.5,-227.8 24.5,-227.8 l -260.2,95.2" /><path
         id="path286"
         style="fill:#f99746;fill-opacity:1;fill-rule:nonzero;stroke:none"
         d="m 8250.41,12840 c 0,0 912.53,-1172.3 975.71,-2388.4 C 9289.29,9235.5 7373.4,9382.2 7373.4,9382.2 l -29.63,423.6 c 0,0 1815.26,-105.5 1579.63,862.2 -319.16,1310.8 -1059.27,2123.6 -1059.27,2123.6 l 386.28,48.4" /><path
         id="path288"
         style="fill:#ffb27d;fill-opacity:1;fill-rule:nonzero;stroke:none"
         d="m 8457.95,10002.5 c 0,0 311.48,78.3 391.86,0 80.38,-78.3 228.44,-230.5 152.29,-302.5 -76.14,-71.9 -236.9,65.6 -334.2,48.7 -97.29,-16.9 -205.01,19 -268.27,67.7 -63.26,48.6 58.32,186.1 58.32,186.1" /><path
         id="path290"
         style="fill:#ffb27d;fill-opacity:1;fill-rule:nonzero;stroke:none"
         d="m 7945.18,12545.8 c 0,0 -1317.61,-1700.1 -1248.64,-2075.8 80.38,-437.9 1703.09,-653.6 1703.09,-653.6 l 58.32,186.1 c 0,0 -1109.51,528 -1033.78,628.7 118.36,157.3 635.42,666.7 824.92,900.6 61.69,76.1 -187.47,1087.2 -303.91,1014" /><path
         id="path292"
         style="fill:#f9ddbf;fill-opacity:1;fill-rule:nonzero;stroke:none"
         d="m 8004.38,12618.4 c 0,0 -93.72,0.6 -444.84,-519.7 l -435.73,-626.1 c 0,0 106.82,-440.1 589.08,-572.2 0,0 569.55,499.9 629.27,699.1 84.58,282.1 -337.78,1018.9 -337.78,1018.9" /><g
         transform="scale(1.73945)"
         id="g294"><path
           id="path296"
           style="fill:#2e3552;fill-opacity:1;fill-rule:nonzero;stroke:none"
           d="M 821.396,1399.58 H 16280.2 c 10.9,0 19.8,8.91 19.8,19.77 v 12.77 c 0,10.86 -8.9,19.83 -19.8,19.83 H 821.396 c -10.9,0 -19.818,-8.97 -19.818,-19.83 v -12.77 c 0,-10.86 8.918,-19.77 19.818,-19.77" /></g><path
         id="path298"
         style="fill:#2e3552;fill-opacity:1;fill-rule:nonzero;stroke:none"
         d="m 4473.53,5497.8 c 0,0 404.39,27.1 677.78,-97.8 l -12.02,-48.4 c 0,0 -249.73,107.5 -672.81,85.3 l 7.05,60.9" /></g></g></svg>
